<svg width="1440" height="347" viewBox="0 0 1440 347" fill="none" xmlns="http://www.w3.org/2000/svg">
<rect width="1440" height="347" fill="#120B48"/>
<g clip-path="url(#clip0_612_1503)">
<path d="M171.14 124.842C170.58 122.912 169.562 121.146 168.172 119.695C166.782 118.244 165.062 117.151 163.158 116.509C161.277 115.961 159.299 115.827 157.361 116.114C155.423 116.402 153.571 117.105 151.93 118.176C151.795 118.311 151.625 118.407 151.44 118.453C151.254 118.5 151.06 118.495 150.877 118.439C150.508 118.319 150.176 118.108 149.912 117.825C149.72 117.478 149.657 117.073 149.737 116.684C149.787 116.498 149.875 116.323 149.996 116.172C150.117 116.022 150.267 115.897 150.438 115.807C155.087 113.088 159.649 112.386 164.035 113.79C166.194 114.508 168.166 115.7 169.805 117.278C171.444 118.857 172.709 120.782 173.509 122.912H179.386C178.184 118.172 175.287 114.036 171.243 111.287C167.198 108.538 162.287 107.365 157.437 107.992C152.587 108.619 148.134 111 144.921 114.687C141.708 118.374 139.957 123.11 140 128C140 128.79 140.087 129.491 140.087 130.281H147.544C147.828 130.265 148.111 130.341 148.348 130.5C148.585 130.658 148.765 130.889 148.859 131.158C149.432 133.081 150.455 134.84 151.843 136.289C153.232 137.739 154.945 138.836 156.842 139.491C158.723 140.039 160.7 140.173 162.638 139.886C164.576 139.598 166.429 138.895 168.07 137.825C168.205 137.689 168.374 137.593 168.56 137.547C168.745 137.501 168.94 137.506 169.123 137.562C169.491 137.681 169.823 137.892 170.087 138.176C170.28 138.523 170.342 138.927 170.263 139.316C170.213 139.503 170.124 139.677 170.004 139.828C169.883 139.979 169.732 140.103 169.561 140.193C166.917 141.972 163.801 142.919 160.614 142.912C159.039 142.901 157.473 142.664 155.965 142.211C153.796 141.51 151.816 140.324 150.175 138.743C148.533 137.162 147.273 135.228 146.491 133.088H140.702C141.97 137.75 144.883 141.796 148.902 144.477C152.922 147.158 157.776 148.294 162.568 147.673C167.36 147.053 171.765 144.719 174.97 141.102C178.174 137.486 179.961 132.832 180 128C180.016 127.268 179.987 126.536 179.912 125.807H172.544C172.245 125.787 171.956 125.687 171.709 125.517C171.462 125.348 171.266 125.114 171.14 124.842Z" fill="white"/>
<path d="M160.084 136.75C161.811 136.733 163.494 136.206 164.922 135.234C166.35 134.263 167.458 132.89 168.108 131.29C168.757 129.69 168.919 127.933 168.571 126.242C168.224 124.55 167.385 122.999 166.158 121.783C164.931 120.568 163.371 119.743 161.676 119.412C159.981 119.081 158.226 119.259 156.632 119.924C155.038 120.589 153.677 121.71 152.719 123.147C151.761 124.584 151.25 126.273 151.25 128C151.25 129.156 151.479 130.301 151.924 131.368C152.369 132.435 153.021 133.403 153.842 134.217C154.664 135.03 155.638 135.673 156.71 136.108C157.781 136.543 158.928 136.761 160.084 136.75Z" fill="#120B48"/>
</g>
<path d="M189.011 133.5V121.864H191.472V126.665H196.466V121.864H198.92V133.5H196.466V128.693H191.472V133.5H189.011ZM204.881 133.67C203.983 133.67 203.21 133.489 202.562 133.125C201.919 132.758 201.422 132.239 201.074 131.568C200.725 130.894 200.551 130.097 200.551 129.176C200.551 128.278 200.725 127.491 201.074 126.812C201.422 126.134 201.913 125.606 202.545 125.227C203.182 124.848 203.928 124.659 204.784 124.659C205.36 124.659 205.896 124.752 206.392 124.938C206.892 125.119 207.328 125.394 207.699 125.761C208.074 126.129 208.366 126.591 208.574 127.148C208.782 127.701 208.886 128.348 208.886 129.091V129.756H201.517V128.256H206.608C206.608 127.907 206.532 127.598 206.381 127.33C206.229 127.061 206.019 126.85 205.75 126.699C205.485 126.544 205.176 126.466 204.824 126.466C204.456 126.466 204.131 126.551 203.847 126.722C203.566 126.888 203.347 127.114 203.188 127.398C203.028 127.678 202.947 127.991 202.943 128.335V129.761C202.943 130.193 203.023 130.566 203.182 130.881C203.345 131.195 203.574 131.438 203.869 131.608C204.165 131.778 204.515 131.864 204.92 131.864C205.189 131.864 205.436 131.826 205.659 131.75C205.883 131.674 206.074 131.561 206.233 131.409C206.392 131.258 206.513 131.072 206.597 130.852L208.835 131C208.722 131.538 208.489 132.008 208.136 132.409C207.788 132.807 207.337 133.117 206.784 133.341C206.235 133.561 205.6 133.67 204.881 133.67ZM212.886 121.864V133.5H210.466V121.864H212.886ZM214.825 136.773V124.773H217.212V126.239H217.32C217.426 126.004 217.579 125.765 217.78 125.523C217.984 125.277 218.25 125.072 218.575 124.909C218.905 124.742 219.314 124.659 219.803 124.659C220.439 124.659 221.026 124.826 221.564 125.159C222.102 125.489 222.532 125.987 222.854 126.653C223.176 127.316 223.337 128.148 223.337 129.148C223.337 130.121 223.179 130.943 222.865 131.614C222.554 132.28 222.13 132.786 221.592 133.131C221.058 133.472 220.46 133.642 219.797 133.642C219.327 133.642 218.928 133.564 218.598 133.409C218.272 133.254 218.005 133.059 217.797 132.824C217.589 132.585 217.429 132.345 217.32 132.102H217.246V136.773H214.825ZM217.195 129.136C217.195 129.655 217.267 130.108 217.411 130.494C217.554 130.881 217.763 131.182 218.036 131.398C218.308 131.61 218.64 131.716 219.03 131.716C219.424 131.716 219.757 131.608 220.03 131.392C220.303 131.172 220.509 130.869 220.649 130.483C220.793 130.093 220.865 129.644 220.865 129.136C220.865 128.633 220.795 128.189 220.655 127.807C220.515 127.424 220.308 127.125 220.036 126.909C219.763 126.693 219.428 126.585 219.03 126.585C218.636 126.585 218.303 126.689 218.03 126.898C217.761 127.106 217.554 127.402 217.411 127.784C217.267 128.167 217.195 128.617 217.195 129.136ZM224.996 121.864H228.03L231.234 129.682H231.371L234.575 121.864H237.609V133.5H235.223V125.926H235.126L232.115 133.443H230.49L227.479 125.898H227.382V133.5H224.996V121.864ZM243.568 133.67C242.67 133.67 241.898 133.489 241.25 133.125C240.606 132.758 240.11 132.239 239.761 131.568C239.413 130.894 239.239 130.097 239.239 129.176C239.239 128.278 239.413 127.491 239.761 126.812C240.11 126.134 240.6 125.606 241.233 125.227C241.869 124.848 242.616 124.659 243.472 124.659C244.047 124.659 244.583 124.752 245.08 124.938C245.58 125.119 246.015 125.394 246.386 125.761C246.761 126.129 247.053 126.591 247.261 127.148C247.47 127.701 247.574 128.348 247.574 129.091V129.756H240.205V128.256H245.295C245.295 127.907 245.22 127.598 245.068 127.33C244.917 127.061 244.706 126.85 244.438 126.699C244.172 126.544 243.864 126.466 243.511 126.466C243.144 126.466 242.818 126.551 242.534 126.722C242.254 126.888 242.034 127.114 241.875 127.398C241.716 127.678 241.634 127.991 241.631 128.335V129.761C241.631 130.193 241.71 130.566 241.869 130.881C242.032 131.195 242.261 131.438 242.557 131.608C242.852 131.778 243.203 131.864 243.608 131.864C243.877 131.864 244.123 131.826 244.347 131.75C244.57 131.674 244.761 131.561 244.92 131.409C245.08 131.258 245.201 131.072 245.284 130.852L247.523 131C247.409 131.538 247.176 132.008 246.824 132.409C246.475 132.807 246.025 133.117 245.472 133.341C244.922 133.561 244.288 133.67 243.568 133.67ZM259.892 127.682C259.892 128.951 259.652 130.03 259.17 130.92C258.693 131.811 258.042 132.491 257.216 132.96C256.394 133.426 255.47 133.659 254.443 133.659C253.409 133.659 252.481 133.424 251.659 132.955C250.837 132.485 250.188 131.805 249.71 130.915C249.233 130.025 248.994 128.947 248.994 127.682C248.994 126.413 249.233 125.333 249.71 124.443C250.188 123.553 250.837 122.875 251.659 122.409C252.481 121.939 253.409 121.705 254.443 121.705C255.47 121.705 256.394 121.939 257.216 122.409C258.042 122.875 258.693 123.553 259.17 124.443C259.652 125.333 259.892 126.413 259.892 127.682ZM257.398 127.682C257.398 126.86 257.275 126.167 257.028 125.602C256.786 125.038 256.443 124.61 256 124.318C255.557 124.027 255.038 123.881 254.443 123.881C253.848 123.881 253.33 124.027 252.886 124.318C252.443 124.61 252.098 125.038 251.852 125.602C251.61 126.167 251.489 126.86 251.489 127.682C251.489 128.504 251.61 129.197 251.852 129.761C252.098 130.326 252.443 130.754 252.886 131.045C253.33 131.337 253.848 131.483 254.443 131.483C255.038 131.483 255.557 131.337 256 131.045C256.443 130.754 256.786 130.326 257.028 129.761C257.275 129.197 257.398 128.504 257.398 127.682ZM267.266 129.784V124.773H269.686V133.5H267.362V131.915H267.271C267.074 132.426 266.747 132.837 266.288 133.148C265.834 133.458 265.279 133.614 264.624 133.614C264.04 133.614 263.527 133.481 263.084 133.216C262.641 132.951 262.294 132.574 262.044 132.085C261.798 131.597 261.673 131.011 261.669 130.33V124.773H264.089V129.898C264.093 130.413 264.232 130.82 264.504 131.119C264.777 131.419 265.143 131.568 265.601 131.568C265.893 131.568 266.165 131.502 266.419 131.369C266.673 131.233 266.877 131.032 267.033 130.767C267.192 130.502 267.269 130.174 267.266 129.784ZM276.264 124.773V126.591H271.009V124.773H276.264ZM272.202 122.682H274.622V130.818C274.622 131.042 274.656 131.216 274.724 131.341C274.793 131.462 274.887 131.547 275.009 131.597C275.134 131.646 275.277 131.67 275.44 131.67C275.554 131.67 275.668 131.661 275.781 131.642C275.895 131.619 275.982 131.602 276.043 131.591L276.423 133.392C276.302 133.43 276.132 133.473 275.912 133.523C275.692 133.576 275.425 133.608 275.111 133.619C274.527 133.642 274.016 133.564 273.577 133.386C273.141 133.208 272.802 132.932 272.56 132.557C272.317 132.182 272.198 131.708 272.202 131.136V122.682Z" fill="white"/>
<path d="M531.44 113V101.32H534.544L537.472 108.296H537.76L540.672 101.32H543.824V113H541.568V103.032L541.856 103.064L538.704 110.616H536.384L533.216 103.064L533.52 103.032V113H531.44ZM550.418 113.304C549.671 113.304 549.015 113.176 548.45 112.92C547.895 112.664 547.431 112.323 547.058 111.896C546.695 111.459 546.418 110.973 546.226 110.44C546.044 109.907 545.954 109.363 545.954 108.808V108.504C545.954 107.928 546.044 107.373 546.226 106.84C546.418 106.296 546.695 105.816 547.058 105.4C547.431 104.973 547.89 104.637 548.434 104.392C548.978 104.136 549.607 104.008 550.322 104.008C551.26 104.008 552.044 104.216 552.674 104.632C553.314 105.037 553.794 105.576 554.114 106.248C554.434 106.909 554.594 107.624 554.594 108.392V109.192H546.898V107.832H553.202L552.514 108.504C552.514 107.949 552.434 107.475 552.274 107.08C552.114 106.685 551.868 106.381 551.538 106.168C551.218 105.955 550.812 105.848 550.322 105.848C549.831 105.848 549.415 105.96 549.074 106.184C548.732 106.408 548.471 106.733 548.29 107.16C548.119 107.576 548.034 108.077 548.034 108.664C548.034 109.208 548.119 109.693 548.29 110.12C548.46 110.536 548.722 110.867 549.074 111.112C549.426 111.347 549.874 111.464 550.418 111.464C550.962 111.464 551.404 111.357 551.746 111.144C552.087 110.92 552.306 110.648 552.402 110.328H554.45C554.322 110.925 554.076 111.448 553.714 111.896C553.351 112.344 552.887 112.691 552.322 112.936C551.767 113.181 551.132 113.304 550.418 113.304ZM556.452 113V104.312H558.212V108.04H558.052C558.052 107.155 558.169 106.419 558.404 105.832C558.638 105.235 558.985 104.787 559.444 104.488C559.913 104.189 560.494 104.04 561.188 104.04H561.284C562.318 104.04 563.102 104.376 563.635 105.048C564.169 105.709 564.436 106.701 564.436 108.024V113H562.212V107.832C562.212 107.299 562.057 106.867 561.748 106.536C561.449 106.205 561.033 106.04 560.5 106.04C559.956 106.04 559.513 106.211 559.172 106.552C558.841 106.883 558.676 107.331 558.676 107.896V113H556.452ZM569.786 113.272C568.784 113.272 568.005 112.941 567.451 112.28C566.907 111.619 566.635 110.637 566.635 109.336V104.296H568.859V109.528C568.859 110.061 569.008 110.488 569.307 110.808C569.605 111.117 570.011 111.272 570.523 111.272C571.035 111.272 571.451 111.107 571.771 110.776C572.101 110.445 572.267 109.997 572.267 109.432V104.296H574.491V113H572.731V109.304H572.907C572.907 110.179 572.795 110.909 572.571 111.496C572.347 112.083 572.011 112.525 571.563 112.824C571.115 113.123 570.555 113.272 569.883 113.272H569.786Z" fill="white"/>
<path d="M540.016 148.44V159H538.736V148.44H540.016ZM533.008 148.44V159H531.728V148.44H533.008ZM539.328 153.048V154.248H532.4V153.048H539.328ZM546.425 150.84C547.182 150.84 547.849 151.005 548.425 151.336C549.012 151.667 549.47 152.147 549.801 152.776C550.132 153.395 550.297 154.136 550.297 155C550.297 155.864 550.132 156.611 549.801 157.24C549.47 157.859 549.012 158.333 548.425 158.664C547.849 158.995 547.182 159.16 546.425 159.16C545.678 159.16 545.012 158.995 544.425 158.664C543.838 158.333 543.38 157.859 543.049 157.24C542.718 156.611 542.553 155.864 542.553 155C542.553 154.136 542.718 153.395 543.049 152.776C543.38 152.147 543.838 151.667 544.425 151.336C545.012 151.005 545.678 150.84 546.425 150.84ZM546.425 151.944C545.881 151.944 545.417 152.067 545.033 152.312C544.649 152.557 544.35 152.909 544.137 153.368C543.934 153.816 543.833 154.36 543.833 155C543.833 155.629 543.934 156.173 544.137 156.632C544.35 157.091 544.649 157.443 545.033 157.688C545.417 157.933 545.881 158.056 546.425 158.056C546.969 158.056 547.433 157.933 547.817 157.688C548.201 157.443 548.494 157.091 548.697 156.632C548.91 156.173 549.017 155.629 549.017 155C549.017 154.36 548.91 153.816 548.697 153.368C548.494 152.909 548.201 152.557 547.817 152.312C547.433 152.067 546.969 151.944 546.425 151.944ZM552.707 159V151H553.827L553.907 152.248C554.195 151.757 554.568 151.4 555.027 151.176C555.496 150.952 555.976 150.84 556.467 150.84C557.032 150.84 557.565 150.968 558.067 151.224C558.568 151.48 558.952 151.875 559.219 152.408C559.389 152.045 559.629 151.752 559.939 151.528C560.248 151.293 560.584 151.123 560.947 151.016C561.32 150.899 561.672 150.84 562.003 150.84C562.515 150.84 563 150.947 563.459 151.16C563.928 151.373 564.312 151.704 564.611 152.152C564.909 152.6 565.059 153.176 565.059 153.88V159H563.779V154.008C563.779 153.283 563.597 152.76 563.235 152.44C562.872 152.12 562.424 151.96 561.891 151.96C561.475 151.96 561.085 152.061 560.723 152.264C560.36 152.467 560.067 152.765 559.843 153.16C559.629 153.555 559.523 154.04 559.523 154.616V159H558.243V154.008C558.243 153.283 558.061 152.76 557.699 152.44C557.336 152.12 556.888 151.96 556.355 151.96C556.003 151.96 555.64 152.056 555.267 152.248C554.904 152.429 554.6 152.723 554.355 153.128C554.109 153.533 553.987 154.067 553.987 154.728V159H552.707ZM571.301 159.16C570.543 159.16 569.866 158.995 569.269 158.664C568.682 158.333 568.223 157.859 567.893 157.24C567.562 156.611 567.397 155.864 567.397 155C567.397 154.136 567.562 153.395 567.893 152.776C568.223 152.147 568.677 151.667 569.253 151.336C569.829 151.005 570.485 150.84 571.221 150.84C571.967 150.84 572.602 151 573.125 151.32C573.658 151.64 574.063 152.077 574.341 152.632C574.618 153.176 574.757 153.789 574.757 154.472C574.757 154.653 574.751 154.819 574.741 154.968C574.73 155.117 574.714 155.251 574.693 155.368H568.229V154.232H574.133L573.477 154.36C573.477 153.592 573.263 153 572.837 152.584C572.421 152.168 571.871 151.96 571.189 151.96C570.666 151.96 570.213 152.083 569.829 152.328C569.455 152.563 569.162 152.909 568.949 153.368C568.746 153.816 568.645 154.36 568.645 155C568.645 155.629 568.751 156.173 568.965 156.632C569.178 157.091 569.477 157.443 569.861 157.688C570.255 157.923 570.725 158.04 571.269 158.04C571.855 158.04 572.33 157.928 572.693 157.704C573.066 157.48 573.365 157.176 573.589 156.792L574.597 157.384C574.394 157.747 574.133 158.061 573.813 158.328C573.503 158.595 573.135 158.803 572.709 158.952C572.293 159.091 571.823 159.16 571.301 159.16Z" fill="white"/>
<path d="M540.24 199.296C540.016 199.893 539.696 200.411 539.28 200.848C538.864 201.275 538.373 201.6 537.808 201.824C537.253 202.048 536.645 202.16 535.984 202.16C534.981 202.16 534.112 201.941 533.376 201.504C532.651 201.056 532.085 200.427 531.68 199.616C531.285 198.805 531.088 197.84 531.088 196.72C531.088 195.6 531.285 194.635 531.68 193.824C532.085 193.013 532.651 192.389 533.376 191.952C534.112 191.504 534.971 191.28 535.952 191.28C536.635 191.28 537.243 191.376 537.776 191.568C538.309 191.749 538.763 192.027 539.136 192.4C539.52 192.763 539.824 193.211 540.048 193.744L538.784 194.336C538.549 193.728 538.208 193.269 537.76 192.96C537.323 192.64 536.752 192.48 536.048 192.48C535.333 192.48 534.704 192.651 534.16 192.992C533.616 193.323 533.189 193.803 532.88 194.432C532.581 195.061 532.432 195.824 532.432 196.72C532.432 197.605 532.576 198.368 532.864 199.008C533.152 199.637 533.563 200.123 534.096 200.464C534.629 200.795 535.259 200.96 535.984 200.96C536.688 200.96 537.301 200.784 537.824 200.432C538.347 200.069 538.725 199.531 538.96 198.816L540.24 199.296ZM545.769 193.84C546.526 193.84 547.193 194.005 547.769 194.336C548.355 194.667 548.814 195.147 549.145 195.776C549.475 196.395 549.641 197.136 549.641 198C549.641 198.864 549.475 199.611 549.145 200.24C548.814 200.859 548.355 201.333 547.769 201.664C547.193 201.995 546.526 202.16 545.769 202.16C545.022 202.16 544.355 201.995 543.769 201.664C543.182 201.333 542.723 200.859 542.393 200.24C542.062 199.611 541.897 198.864 541.897 198C541.897 197.136 542.062 196.395 542.393 195.776C542.723 195.147 543.182 194.667 543.769 194.336C544.355 194.005 545.022 193.84 545.769 193.84ZM545.769 194.944C545.225 194.944 544.761 195.067 544.377 195.312C543.993 195.557 543.694 195.909 543.481 196.368C543.278 196.816 543.177 197.36 543.177 198C543.177 198.629 543.278 199.173 543.481 199.632C543.694 200.091 543.993 200.443 544.377 200.688C544.761 200.933 545.225 201.056 545.769 201.056C546.313 201.056 546.777 200.933 547.161 200.688C547.545 200.443 547.838 200.091 548.041 199.632C548.254 199.173 548.361 198.629 548.361 198C548.361 197.36 548.254 196.816 548.041 196.368C547.838 195.909 547.545 195.557 547.161 195.312C546.777 195.067 546.313 194.944 545.769 194.944ZM552.051 202V194H553.171L553.283 195.792L553.075 195.616C553.245 195.189 553.475 194.848 553.763 194.592C554.051 194.325 554.381 194.133 554.755 194.016C555.139 193.899 555.533 193.84 555.939 193.84C556.515 193.84 557.037 193.952 557.507 194.176C557.976 194.389 558.349 194.72 558.627 195.168C558.915 195.616 559.059 196.187 559.059 196.88V202H557.779V197.328C557.779 196.443 557.587 195.829 557.203 195.488C556.829 195.136 556.365 194.96 555.811 194.96C555.427 194.96 555.043 195.051 554.659 195.232C554.275 195.413 553.955 195.707 553.699 196.112C553.453 196.517 553.331 197.061 553.331 197.744V202H552.051ZM567.05 194H568.394L565.066 202H563.786L560.458 194H561.914L564.442 200.704L567.05 194ZM573.41 202.16C572.653 202.16 571.975 201.995 571.378 201.664C570.791 201.333 570.333 200.859 570.002 200.24C569.671 199.611 569.506 198.864 569.506 198C569.506 197.136 569.671 196.395 570.002 195.776C570.333 195.147 570.786 194.667 571.362 194.336C571.938 194.005 572.594 193.84 573.33 193.84C574.077 193.84 574.711 194 575.234 194.32C575.767 194.64 576.173 195.077 576.45 195.632C576.727 196.176 576.866 196.789 576.866 197.472C576.866 197.653 576.861 197.819 576.85 197.968C576.839 198.117 576.823 198.251 576.802 198.368H570.338V197.232H576.242L575.586 197.36C575.586 196.592 575.373 196 574.946 195.584C574.53 195.168 573.981 194.96 573.298 194.96C572.775 194.96 572.322 195.083 571.938 195.328C571.565 195.563 571.271 195.909 571.058 196.368C570.855 196.816 570.754 197.36 570.754 198C570.754 198.629 570.861 199.173 571.074 199.632C571.287 200.091 571.586 200.443 571.97 200.688C572.365 200.923 572.834 201.04 573.378 201.04C573.965 201.04 574.439 200.928 574.802 200.704C575.175 200.48 575.474 200.176 575.698 199.792L576.706 200.384C576.503 200.747 576.242 201.061 575.922 201.328C575.613 201.595 575.245 201.803 574.818 201.952C574.402 202.091 573.933 202.16 573.41 202.16ZM579.301 202V194H580.341L580.517 195.312C580.741 194.821 581.066 194.453 581.493 194.208C581.93 193.963 582.458 193.84 583.077 193.84C583.215 193.84 583.365 193.851 583.525 193.872C583.695 193.893 583.839 193.936 583.957 194L583.733 195.168C583.615 195.125 583.487 195.093 583.349 195.072C583.21 195.051 583.013 195.04 582.757 195.04C582.426 195.04 582.09 195.136 581.749 195.328C581.418 195.52 581.141 195.813 580.917 196.208C580.693 196.592 580.581 197.083 580.581 197.68V202H579.301ZM587.235 191.728V199.792C587.235 200.187 587.347 200.48 587.571 200.672C587.795 200.864 588.083 200.96 588.435 200.96C588.745 200.96 589.011 200.907 589.235 200.8C589.459 200.693 589.662 200.549 589.843 200.368L590.291 201.44C590.046 201.664 589.753 201.84 589.411 201.968C589.081 202.096 588.697 202.16 588.259 202.16C587.854 202.16 587.475 202.091 587.123 201.952C586.771 201.803 586.489 201.573 586.275 201.264C586.073 200.944 585.966 200.528 585.955 200.016V192.08L587.235 191.728ZM590.147 194V195.104H584.355V194H590.147ZM595.395 202.16C594.637 202.16 593.96 201.995 593.363 201.664C592.776 201.333 592.317 200.859 591.987 200.24C591.656 199.611 591.491 198.864 591.491 198C591.491 197.136 591.656 196.395 591.987 195.776C592.317 195.147 592.771 194.667 593.347 194.336C593.923 194.005 594.579 193.84 595.315 193.84C596.061 193.84 596.696 194 597.219 194.32C597.752 194.64 598.157 195.077 598.435 195.632C598.712 196.176 598.851 196.789 598.851 197.472C598.851 197.653 598.845 197.819 598.835 197.968C598.824 198.117 598.808 198.251 598.786 198.368H592.323V197.232H598.227L597.571 197.36C597.571 196.592 597.357 196 596.931 195.584C596.515 195.168 595.965 194.96 595.283 194.96C594.76 194.96 594.307 195.083 593.923 195.328C593.549 195.563 593.256 195.909 593.043 196.368C592.84 196.816 592.739 197.36 592.739 198C592.739 198.629 592.845 199.173 593.059 199.632C593.272 200.091 593.571 200.443 593.955 200.688C594.349 200.923 594.819 201.04 595.363 201.04C595.949 201.04 596.424 200.928 596.787 200.704C597.16 200.48 597.459 200.176 597.683 199.792L598.691 200.384C598.488 200.747 598.227 201.061 597.907 201.328C597.597 201.595 597.229 201.803 596.803 201.952C596.387 202.091 595.917 202.16 595.395 202.16ZM601.285 202V194H602.325L602.501 195.312C602.725 194.821 603.05 194.453 603.477 194.208C603.914 193.963 604.442 193.84 605.061 193.84C605.2 193.84 605.349 193.851 605.509 193.872C605.68 193.893 605.824 193.936 605.941 194L605.717 195.168C605.6 195.125 605.472 195.093 605.333 195.072C605.194 195.051 604.997 195.04 604.741 195.04C604.41 195.04 604.074 195.136 603.733 195.328C603.402 195.52 603.125 195.813 602.901 196.208C602.677 196.592 602.565 197.083 602.565 197.68V202H601.285Z" fill="white"/>
<path d="M540.016 234.44V245H538.736V234.44H540.016ZM533.008 234.44V245H531.728V234.44H533.008ZM539.328 239.048V240.248H532.4V239.048H539.328ZM546.425 236.84C547.182 236.84 547.849 237.005 548.425 237.336C549.012 237.667 549.47 238.147 549.801 238.776C550.132 239.395 550.297 240.136 550.297 241C550.297 241.864 550.132 242.611 549.801 243.24C549.47 243.859 549.012 244.333 548.425 244.664C547.849 244.995 547.182 245.16 546.425 245.16C545.678 245.16 545.012 244.995 544.425 244.664C543.838 244.333 543.38 243.859 543.049 243.24C542.718 242.611 542.553 241.864 542.553 241C542.553 240.136 542.718 239.395 543.049 238.776C543.38 238.147 543.838 237.667 544.425 237.336C545.012 237.005 545.678 236.84 546.425 236.84ZM546.425 237.944C545.881 237.944 545.417 238.067 545.033 238.312C544.649 238.557 544.35 238.909 544.137 239.368C543.934 239.816 543.833 240.36 543.833 241C543.833 241.629 543.934 242.173 544.137 242.632C544.35 243.091 544.649 243.443 545.033 243.688C545.417 243.933 545.881 244.056 546.425 244.056C546.969 244.056 547.433 243.933 547.817 243.688C548.201 243.443 548.494 243.091 548.697 242.632C548.91 242.173 549.017 241.629 549.017 241C549.017 240.36 548.91 239.816 548.697 239.368C548.494 238.909 548.201 238.557 547.817 238.312C547.433 238.067 546.969 237.944 546.425 237.944ZM562.489 237H563.913L561.129 245H559.849L557.593 238.632L555.465 245H554.185L551.401 237H552.825L554.841 243.512L557.017 237H558.297L560.473 243.512L562.489 237ZM571.566 235.464C571.278 235.464 571.043 235.379 570.862 235.208C570.691 235.027 570.606 234.792 570.606 234.504C570.606 234.216 570.691 233.987 570.862 233.816C571.043 233.635 571.278 233.544 571.566 233.544C571.854 233.544 572.083 233.635 572.254 233.816C572.435 233.987 572.526 234.216 572.526 234.504C572.526 234.792 572.435 235.027 572.254 235.208C572.083 235.379 571.854 235.464 571.566 235.464ZM572.206 237V245H570.926V237H572.206ZM577.064 234.728V242.792C577.064 243.187 577.176 243.48 577.4 243.672C577.624 243.864 577.912 243.96 578.264 243.96C578.573 243.96 578.84 243.907 579.064 243.8C579.288 243.693 579.49 243.549 579.672 243.368L580.12 244.44C579.874 244.664 579.581 244.84 579.24 244.968C578.909 245.096 578.525 245.16 578.088 245.16C577.682 245.16 577.304 245.091 576.952 244.952C576.6 244.803 576.317 244.573 576.104 244.264C575.901 243.944 575.794 243.528 575.784 243.016V235.08L577.064 234.728ZM579.976 237V238.104H574.184V237H579.976ZM589.149 245L586.029 234.44H587.357L589.965 243.832L592.445 234.44H593.901L596.381 243.864L598.989 234.44H600.253L597.149 245H595.565L593.693 238.152L593.149 235.768H593.133L592.589 238.152L590.733 245H589.149ZM605.081 236.84C605.839 236.84 606.505 237.005 607.081 237.336C607.668 237.667 608.127 238.147 608.457 238.776C608.788 239.395 608.953 240.136 608.953 241C608.953 241.864 608.788 242.611 608.457 243.24C608.127 243.859 607.668 244.333 607.081 244.664C606.505 244.995 605.839 245.16 605.081 245.16C604.335 245.16 603.668 244.995 603.081 244.664C602.495 244.333 602.036 243.859 601.705 243.24C601.375 242.611 601.209 241.864 601.209 241C601.209 240.136 601.375 239.395 601.705 238.776C602.036 238.147 602.495 237.667 603.081 237.336C603.668 237.005 604.335 236.84 605.081 236.84ZM605.081 237.944C604.537 237.944 604.073 238.067 603.689 238.312C603.305 238.557 603.007 238.909 602.793 239.368C602.591 239.816 602.489 240.36 602.489 241C602.489 241.629 602.591 242.173 602.793 242.632C603.007 243.091 603.305 243.443 603.689 243.688C604.073 243.933 604.537 244.056 605.081 244.056C605.625 244.056 606.089 243.933 606.473 243.688C606.857 243.443 607.151 243.091 607.353 242.632C607.567 242.173 607.673 241.629 607.673 241C607.673 240.36 607.567 239.816 607.353 239.368C607.151 238.909 606.857 238.557 606.473 238.312C606.089 238.067 605.625 237.944 605.081 237.944ZM611.363 245V237H612.403L612.579 238.312C612.803 237.821 613.128 237.453 613.555 237.208C613.992 236.963 614.52 236.84 615.139 236.84C615.278 236.84 615.427 236.851 615.587 236.872C615.758 236.893 615.902 236.936 616.019 237L615.795 238.168C615.678 238.125 615.55 238.093 615.411 238.072C615.272 238.051 615.075 238.04 614.819 238.04C614.488 238.04 614.152 238.136 613.811 238.328C613.48 238.52 613.203 238.813 612.979 239.208C612.755 239.592 612.643 240.083 612.643 240.68V245H611.363ZM624.918 237L621.462 240.456L621.158 240.76L618.534 243.384V241.784L623.302 237H624.918ZM619.174 233.32V245H617.894V233.32H619.174ZM621.574 239.8L625.11 245H623.558L620.502 240.52L621.574 239.8ZM629.681 245.16C628.902 245.16 628.182 244.995 627.521 244.664C626.87 244.333 626.369 243.864 626.017 243.256L627.105 242.472C627.339 242.963 627.681 243.347 628.129 243.624C628.587 243.901 629.137 244.04 629.777 244.04C630.342 244.04 630.785 243.933 631.105 243.72C631.425 243.496 631.585 243.208 631.585 242.856C631.585 242.632 631.51 242.429 631.361 242.248C631.222 242.056 630.95 241.917 630.545 241.832L628.625 241.432C627.846 241.272 627.286 241.005 626.945 240.632C626.614 240.259 626.449 239.795 626.449 239.24C626.449 238.803 626.571 238.403 626.817 238.04C627.073 237.677 627.43 237.389 627.889 237.176C628.358 236.952 628.907 236.84 629.536 236.84C630.326 236.84 630.993 236.995 631.537 237.304C632.081 237.613 632.486 238.051 632.753 238.616L631.681 239.32C631.499 238.851 631.206 238.509 630.801 238.296C630.395 238.072 629.974 237.96 629.536 237.96C629.153 237.96 628.822 238.013 628.545 238.12C628.278 238.227 628.07 238.376 627.921 238.568C627.782 238.749 627.713 238.957 627.713 239.192C627.713 239.427 627.793 239.645 627.953 239.848C628.113 240.04 628.411 240.179 628.849 240.264L630.849 240.68C631.595 240.829 632.118 241.075 632.417 241.416C632.715 241.757 632.865 242.173 632.865 242.664C632.865 243.165 632.731 243.608 632.465 243.992C632.198 244.365 631.825 244.653 631.345 244.856C630.865 245.059 630.31 245.16 629.681 245.16Z" fill="white"/>
<path d="M854.288 113L858.272 101.32H861.984L866.08 113H863.744L860.272 102.872L861.088 103.224H859.088L859.92 102.872L856.56 113H854.288ZM857.072 109.896L857.792 107.976H862.528L863.232 109.896H857.072ZM872.743 113.288C872.028 113.288 871.399 113.139 870.855 112.84C870.311 112.531 869.884 112.083 869.575 111.496C869.266 110.909 869.095 110.2 869.063 109.368H869.399V113H867.639V101.32H869.863V107.16L869.271 108.072C869.314 107.176 869.49 106.429 869.799 105.832C870.119 105.235 870.546 104.787 871.079 104.488C871.612 104.189 872.215 104.04 872.887 104.04C873.484 104.04 874.028 104.152 874.519 104.376C875.01 104.6 875.431 104.915 875.783 105.32C876.135 105.715 876.402 106.179 876.583 106.712C876.775 107.245 876.871 107.827 876.871 108.456V108.792C876.871 109.421 876.775 110.008 876.583 110.552C876.391 111.096 876.114 111.576 875.751 111.992C875.388 112.397 874.951 112.717 874.439 112.952C873.938 113.176 873.372 113.288 872.743 113.288ZM872.247 111.416C872.727 111.416 873.143 111.299 873.495 111.064C873.858 110.819 874.14 110.488 874.343 110.072C874.546 109.656 874.647 109.176 874.647 108.632C874.647 108.077 874.546 107.597 874.343 107.192C874.14 106.787 873.858 106.472 873.495 106.248C873.143 106.024 872.727 105.912 872.247 105.912C871.81 105.912 871.404 106.008 871.031 106.2C870.668 106.392 870.37 106.675 870.135 107.048C869.911 107.421 869.799 107.869 869.799 108.392V109.032C869.799 109.533 869.916 109.96 870.151 110.312C870.386 110.664 870.69 110.936 871.063 111.128C871.436 111.32 871.831 111.416 872.247 111.416ZM883.003 113.304C882.235 113.304 881.557 113.181 880.971 112.936C880.384 112.691 879.888 112.36 879.483 111.944C879.077 111.517 878.768 111.037 878.555 110.504C878.352 109.971 878.251 109.416 878.251 108.84V108.504C878.251 107.907 878.357 107.341 878.571 106.808C878.795 106.264 879.109 105.784 879.515 105.368C879.931 104.941 880.432 104.611 881.019 104.376C881.605 104.131 882.267 104.008 883.003 104.008C883.739 104.008 884.4 104.131 884.987 104.376C885.573 104.611 886.069 104.941 886.475 105.368C886.891 105.784 887.205 106.264 887.419 106.808C887.632 107.341 887.739 107.907 887.739 108.504V108.84C887.739 109.416 887.632 109.971 887.419 110.504C887.216 111.037 886.912 111.517 886.507 111.944C886.101 112.36 885.605 112.691 885.019 112.936C884.432 113.181 883.76 113.304 883.003 113.304ZM883.003 111.4C883.547 111.4 884.005 111.283 884.379 111.048C884.752 110.803 885.035 110.477 885.227 110.072C885.419 109.656 885.515 109.187 885.515 108.664C885.515 108.131 885.413 107.661 885.211 107.256C885.019 106.84 884.731 106.515 884.347 106.28C883.973 106.035 883.525 105.912 883.003 105.912C882.48 105.912 882.027 106.035 881.643 106.28C881.269 106.515 880.981 106.84 880.779 107.256C880.576 107.661 880.475 108.131 880.475 108.664C880.475 109.187 880.571 109.656 880.763 110.072C880.965 110.477 881.253 110.803 881.627 111.048C882 111.283 882.459 111.4 883.003 111.4ZM892.646 113.272C891.643 113.272 890.865 112.941 890.31 112.28C889.766 111.619 889.494 110.637 889.494 109.336V104.296H891.718V109.528C891.718 110.061 891.867 110.488 892.166 110.808C892.465 111.117 892.87 111.272 893.382 111.272C893.894 111.272 894.31 111.107 894.63 110.776C894.961 110.445 895.126 109.997 895.126 109.432V104.296H897.35V113H895.59V109.304H895.766C895.766 110.179 895.654 110.909 895.43 111.496C895.206 112.083 894.87 112.525 894.422 112.824C893.974 113.123 893.414 113.272 892.742 113.272H892.646ZM903.681 113.112C902.881 113.112 902.219 113.011 901.697 112.808C901.185 112.595 900.801 112.243 900.545 111.752C900.289 111.251 900.161 110.579 900.161 109.736L900.177 101.864H902.257L902.241 109.88C902.241 110.307 902.353 110.637 902.577 110.872C902.811 111.096 903.142 111.208 903.569 111.208H904.929V113.112H903.681ZM898.785 105.944V104.312H904.929V105.944H898.785ZM913.208 113.272C912.206 113.272 911.427 112.941 910.872 112.28C910.328 111.619 910.056 110.637 910.056 109.336V104.296H912.28V109.528C912.28 110.061 912.43 110.488 912.728 110.808C913.027 111.117 913.432 111.272 913.944 111.272C914.456 111.272 914.872 111.107 915.192 110.776C915.523 110.445 915.688 109.997 915.688 109.432V104.296H917.912V113H916.152V109.304H916.328C916.328 110.179 916.216 110.909 915.992 111.496C915.768 112.083 915.432 112.525 914.984 112.824C914.536 113.123 913.976 113.272 913.304 113.272H913.208ZM923.619 113.272C922.424 113.272 921.486 113.021 920.803 112.52C920.131 112.008 919.779 111.304 919.747 110.408H921.747C921.779 110.707 921.944 110.979 922.243 111.224C922.542 111.469 923.011 111.592 923.651 111.592C924.184 111.592 924.606 111.496 924.915 111.304C925.235 111.112 925.395 110.851 925.395 110.52C925.395 110.232 925.272 110.003 925.027 109.832C924.792 109.661 924.387 109.549 923.811 109.496L923.043 109.416C922.072 109.309 921.326 109.032 920.803 108.584C920.28 108.136 920.019 107.539 920.019 106.792C920.019 106.195 920.168 105.693 920.467 105.288C920.766 104.883 921.176 104.579 921.699 104.376C922.232 104.163 922.84 104.056 923.523 104.056C924.59 104.056 925.454 104.291 926.115 104.76C926.776 105.229 927.123 105.917 927.155 106.824H925.155C925.134 106.525 924.984 106.269 924.707 106.056C924.43 105.843 924.03 105.736 923.507 105.736C923.038 105.736 922.675 105.827 922.419 106.008C922.163 106.189 922.035 106.424 922.035 106.712C922.035 106.989 922.136 107.203 922.339 107.352C922.552 107.501 922.894 107.603 923.363 107.656L924.131 107.736C925.155 107.843 925.955 108.125 926.531 108.584C927.118 109.043 927.411 109.661 927.411 110.44C927.411 111.016 927.251 111.517 926.931 111.944C926.622 112.36 926.184 112.685 925.619 112.92C925.054 113.155 924.387 113.272 923.619 113.272Z" fill="white"/>
<path d="M864.144 159H862.784L861.664 156.072H856.88L855.76 159H854.416L858.528 148.44H860.048L864.144 159ZM857.344 154.872H861.2L859.264 149.672L857.344 154.872ZM869.971 159.16C869.523 159.16 869.107 159.08 868.723 158.92C868.339 158.76 868.008 158.536 867.731 158.248C867.453 157.96 867.245 157.635 867.107 157.272L867.283 157.048L867.171 159H866.051V147.32H867.331V152.808L867.171 152.568C867.384 152.067 867.741 151.656 868.243 151.336C868.755 151.005 869.336 150.84 869.987 150.84C870.648 150.84 871.256 151.005 871.811 151.336C872.365 151.667 872.808 152.141 873.139 152.76C873.469 153.379 873.635 154.125 873.635 155C873.635 155.864 873.464 156.611 873.123 157.24C872.792 157.859 872.349 158.333 871.795 158.664C871.24 158.995 870.632 159.16 869.971 159.16ZM869.843 158.04C870.632 158.04 871.245 157.763 871.683 157.208C872.131 156.653 872.355 155.917 872.355 155C872.355 154.083 872.136 153.347 871.699 152.792C871.261 152.237 870.648 151.96 869.859 151.96C869.357 151.96 868.915 152.088 868.531 152.344C868.157 152.6 867.864 152.957 867.651 153.416C867.437 153.875 867.331 154.413 867.331 155.032C867.331 155.64 867.432 156.173 867.635 156.632C867.848 157.08 868.141 157.427 868.515 157.672C868.899 157.917 869.341 158.04 869.843 158.04ZM879.394 150.84C880.151 150.84 880.818 151.005 881.394 151.336C881.98 151.667 882.439 152.147 882.77 152.776C883.1 153.395 883.266 154.136 883.266 155C883.266 155.864 883.1 156.611 882.77 157.24C882.439 157.859 881.98 158.333 881.394 158.664C880.818 158.995 880.151 159.16 879.394 159.16C878.647 159.16 877.98 158.995 877.394 158.664C876.807 158.333 876.348 157.859 876.018 157.24C875.687 156.611 875.522 155.864 875.522 155C875.522 154.136 875.687 153.395 876.018 152.776C876.348 152.147 876.807 151.667 877.394 151.336C877.98 151.005 878.647 150.84 879.394 150.84ZM879.394 151.944C878.85 151.944 878.386 152.067 878.002 152.312C877.618 152.557 877.319 152.909 877.106 153.368C876.903 153.816 876.802 154.36 876.802 155C876.802 155.629 876.903 156.173 877.106 156.632C877.319 157.091 877.618 157.443 878.002 157.688C878.386 157.933 878.85 158.056 879.394 158.056C879.938 158.056 880.402 157.933 880.786 157.688C881.17 157.443 881.463 157.091 881.666 156.632C881.879 156.173 881.986 155.629 881.986 155C881.986 154.36 881.879 153.816 881.666 153.368C881.463 152.909 881.17 152.557 880.786 152.312C880.402 152.067 879.938 151.944 879.394 151.944ZM888.572 159.16C888.06 159.16 887.574 159.064 887.116 158.872C886.668 158.68 886.3 158.371 886.012 157.944C885.734 157.507 885.596 156.941 885.596 156.248V151H886.876V155.912C886.876 156.723 887.052 157.283 887.404 157.592C887.756 157.891 888.252 158.04 888.891 158.04C889.19 158.04 889.484 157.992 889.772 157.896C890.06 157.789 890.316 157.629 890.54 157.416C890.774 157.192 890.956 156.909 891.084 156.568C891.222 156.227 891.292 155.821 891.292 155.352V151H892.572V159H891.452L891.372 157.784C891.094 158.264 890.716 158.616 890.236 158.84C889.766 159.053 889.212 159.16 888.572 159.16ZM897.439 148.728V156.792C897.439 157.187 897.551 157.48 897.775 157.672C897.999 157.864 898.287 157.96 898.639 157.96C898.948 157.96 899.215 157.907 899.439 157.8C899.663 157.693 899.865 157.549 900.047 157.368L900.495 158.44C900.249 158.664 899.956 158.84 899.615 158.968C899.284 159.096 898.9 159.16 898.463 159.16C898.057 159.16 897.679 159.091 897.327 158.952C896.975 158.803 896.692 158.573 896.479 158.264C896.276 157.944 896.169 157.528 896.159 157.016V149.08L897.439 148.728ZM900.351 151V152.104H894.559V151H900.351Z" fill="white"/>
<path d="M864.24 199.296C864.016 199.893 863.696 200.411 863.28 200.848C862.864 201.275 862.373 201.6 861.808 201.824C861.253 202.048 860.645 202.16 859.984 202.16C858.981 202.16 858.112 201.941 857.376 201.504C856.651 201.056 856.085 200.427 855.68 199.616C855.285 198.805 855.088 197.84 855.088 196.72C855.088 195.6 855.285 194.635 855.68 193.824C856.085 193.013 856.651 192.389 857.376 191.952C858.112 191.504 858.971 191.28 859.952 191.28C860.635 191.28 861.243 191.376 861.776 191.568C862.309 191.749 862.763 192.027 863.136 192.4C863.52 192.763 863.824 193.211 864.048 193.744L862.784 194.336C862.549 193.728 862.208 193.269 861.76 192.96C861.323 192.64 860.752 192.48 860.048 192.48C859.333 192.48 858.704 192.651 858.16 192.992C857.616 193.323 857.189 193.803 856.88 194.432C856.581 195.061 856.432 195.824 856.432 196.72C856.432 197.605 856.576 198.368 856.864 199.008C857.152 199.637 857.563 200.123 858.096 200.464C858.629 200.795 859.259 200.96 859.984 200.96C860.688 200.96 861.301 200.784 861.824 200.432C862.347 200.069 862.725 199.531 862.96 198.816L864.24 199.296ZM869.769 193.84C870.526 193.84 871.193 194.005 871.769 194.336C872.355 194.667 872.814 195.147 873.145 195.776C873.475 196.395 873.641 197.136 873.641 198C873.641 198.864 873.475 199.611 873.145 200.24C872.814 200.859 872.355 201.333 871.769 201.664C871.193 201.995 870.526 202.16 869.769 202.16C869.022 202.16 868.355 201.995 867.769 201.664C867.182 201.333 866.723 200.859 866.393 200.24C866.062 199.611 865.897 198.864 865.897 198C865.897 197.136 866.062 196.395 866.393 195.776C866.723 195.147 867.182 194.667 867.769 194.336C868.355 194.005 869.022 193.84 869.769 193.84ZM869.769 194.944C869.225 194.944 868.761 195.067 868.377 195.312C867.993 195.557 867.694 195.909 867.481 196.368C867.278 196.816 867.177 197.36 867.177 198C867.177 198.629 867.278 199.173 867.481 199.632C867.694 200.091 867.993 200.443 868.377 200.688C868.761 200.933 869.225 201.056 869.769 201.056C870.313 201.056 870.777 200.933 871.161 200.688C871.545 200.443 871.838 200.091 872.041 199.632C872.254 199.173 872.361 198.629 872.361 198C872.361 197.36 872.254 196.816 872.041 196.368C871.838 195.909 871.545 195.557 871.161 195.312C870.777 195.067 870.313 194.944 869.769 194.944ZM876.051 202V194H877.171L877.283 195.792L877.075 195.616C877.245 195.189 877.475 194.848 877.763 194.592C878.051 194.325 878.381 194.133 878.755 194.016C879.139 193.899 879.533 193.84 879.939 193.84C880.515 193.84 881.037 193.952 881.507 194.176C881.976 194.389 882.349 194.72 882.627 195.168C882.915 195.616 883.059 196.187 883.059 196.88V202H881.779V197.328C881.779 196.443 881.587 195.829 881.203 195.488C880.829 195.136 880.365 194.96 879.811 194.96C879.427 194.96 879.043 195.051 878.659 195.232C878.275 195.413 877.955 195.707 877.699 196.112C877.453 196.517 877.331 197.061 877.331 197.744V202H876.051ZM887.735 191.728V199.792C887.735 200.187 887.847 200.48 888.071 200.672C888.295 200.864 888.583 200.96 888.935 200.96C889.245 200.96 889.511 200.907 889.735 200.8C889.959 200.693 890.162 200.549 890.343 200.368L890.791 201.44C890.546 201.664 890.253 201.84 889.911 201.968C889.581 202.096 889.197 202.16 888.759 202.16C888.354 202.16 887.975 202.091 887.623 201.952C887.271 201.803 886.989 201.573 886.775 201.264C886.573 200.944 886.466 200.528 886.455 200.016V192.08L887.735 191.728ZM890.647 194V195.104H884.855V194H890.647ZM897.223 196.832C897.223 196.235 897.063 195.776 896.743 195.456C896.423 195.125 895.969 194.96 895.383 194.96C894.828 194.96 894.359 195.083 893.975 195.328C893.591 195.563 893.308 195.947 893.127 196.48L892.087 195.84C892.3 195.243 892.695 194.763 893.271 194.4C893.847 194.027 894.561 193.84 895.415 193.84C895.991 193.84 896.513 193.941 896.983 194.144C897.452 194.336 897.82 194.635 898.087 195.04C898.364 195.435 898.503 195.947 898.503 196.576V200.448C898.503 200.832 898.705 201.024 899.111 201.024C899.313 201.024 899.511 200.997 899.703 200.944L899.639 201.952C899.425 202.059 899.148 202.112 898.807 202.112C898.497 202.112 898.22 202.053 897.975 201.936C897.729 201.819 897.537 201.643 897.399 201.408C897.26 201.163 897.191 200.859 897.191 200.496V200.336L897.511 200.384C897.383 200.8 897.164 201.141 896.855 201.408C896.545 201.664 896.199 201.856 895.815 201.984C895.431 202.101 895.052 202.16 894.679 202.16C894.209 202.16 893.772 202.08 893.367 201.92C892.961 201.76 892.636 201.52 892.391 201.2C892.156 200.869 892.039 200.464 892.039 199.984C892.039 199.387 892.236 198.896 892.631 198.512C893.036 198.117 893.596 197.851 894.311 197.712L897.479 197.088V198.144L894.903 198.672C894.38 198.779 893.991 198.928 893.735 199.12C893.479 199.312 893.351 199.579 893.351 199.92C893.351 200.251 893.479 200.523 893.735 200.736C894.001 200.939 894.375 201.04 894.855 201.04C895.164 201.04 895.457 201.003 895.735 200.928C896.023 200.843 896.279 200.72 896.503 200.56C896.727 200.389 896.903 200.181 897.031 199.936C897.159 199.68 897.223 199.381 897.223 199.04V196.832ZM904.925 193.84C905.48 193.84 905.965 193.925 906.381 194.096C906.808 194.267 907.176 194.512 907.485 194.832C907.794 195.152 908.045 195.531 908.237 195.968L907.021 196.544C906.85 196.032 906.589 195.643 906.237 195.376C905.896 195.099 905.448 194.96 904.893 194.96C904.36 194.96 903.901 195.083 903.517 195.328C903.133 195.563 902.84 195.909 902.637 196.368C902.434 196.816 902.333 197.36 902.333 198C902.333 198.629 902.434 199.173 902.637 199.632C902.84 200.091 903.133 200.443 903.517 200.688C903.901 200.923 904.36 201.04 904.893 201.04C905.309 201.04 905.666 200.976 905.965 200.848C906.274 200.72 906.525 200.533 906.717 200.288C906.92 200.043 907.058 199.744 907.133 199.392L908.317 199.808C908.136 200.299 907.885 200.72 907.565 201.072C907.256 201.424 906.877 201.696 906.429 201.888C905.992 202.069 905.49 202.16 904.925 202.16C904.178 202.16 903.512 201.995 902.925 201.664C902.338 201.333 901.88 200.859 901.549 200.24C901.218 199.611 901.053 198.864 901.053 198C901.053 197.136 901.218 196.395 901.549 195.776C901.88 195.147 902.338 194.667 902.925 194.336C903.512 194.005 904.178 193.84 904.925 193.84ZM912.454 191.728V199.792C912.454 200.187 912.566 200.48 912.79 200.672C913.014 200.864 913.302 200.96 913.654 200.96C913.963 200.96 914.23 200.907 914.454 200.8C914.678 200.693 914.881 200.549 915.062 200.368L915.51 201.44C915.265 201.664 914.971 201.84 914.63 201.968C914.299 202.096 913.915 202.16 913.478 202.16C913.073 202.16 912.694 202.091 912.342 201.952C911.99 201.803 911.707 201.573 911.494 201.264C911.291 200.944 911.185 200.528 911.174 200.016V192.08L912.454 191.728ZM915.366 194V195.104H909.574V194H915.366ZM931.042 191.44V198.064C931.042 199.419 930.685 200.443 929.97 201.136C929.256 201.819 928.232 202.16 926.898 202.16C925.576 202.16 924.552 201.819 923.826 201.136C923.112 200.443 922.754 199.419 922.754 198.064V191.44H924.034V197.744C924.034 198.843 924.264 199.653 924.722 200.176C925.192 200.699 925.917 200.96 926.898 200.96C927.88 200.96 928.6 200.699 929.058 200.176C929.528 199.653 929.762 198.843 929.762 197.744V191.44H931.042ZM936.79 202.16C936.011 202.16 935.291 201.995 934.63 201.664C933.979 201.333 933.478 200.864 933.126 200.256L934.214 199.472C934.449 199.963 934.79 200.347 935.238 200.624C935.697 200.901 936.246 201.04 936.886 201.04C937.451 201.04 937.894 200.933 938.214 200.72C938.534 200.496 938.694 200.208 938.694 199.856C938.694 199.632 938.619 199.429 938.47 199.248C938.331 199.056 938.059 198.917 937.654 198.832L935.734 198.432C934.955 198.272 934.395 198.005 934.054 197.632C933.723 197.259 933.558 196.795 933.558 196.24C933.558 195.803 933.681 195.403 933.926 195.04C934.182 194.677 934.539 194.389 934.998 194.176C935.467 193.952 936.017 193.84 936.646 193.84C937.435 193.84 938.102 193.995 938.646 194.304C939.19 194.613 939.595 195.051 939.862 195.616L938.79 196.32C938.609 195.851 938.315 195.509 937.91 195.296C937.505 195.072 937.083 194.96 936.646 194.96C936.262 194.96 935.931 195.013 935.654 195.12C935.387 195.227 935.179 195.376 935.03 195.568C934.891 195.749 934.822 195.957 934.822 196.192C934.822 196.427 934.902 196.645 935.062 196.848C935.222 197.04 935.521 197.179 935.958 197.264L937.958 197.68C938.705 197.829 939.227 198.075 939.526 198.416C939.825 198.757 939.974 199.173 939.974 199.664C939.974 200.165 939.841 200.608 939.574 200.992C939.307 201.365 938.934 201.653 938.454 201.856C937.974 202.059 937.419 202.16 936.79 202.16Z" fill="white"/>
<path d="M859.456 234.44C860.171 234.44 860.789 234.573 861.312 234.84C861.845 235.096 862.261 235.464 862.56 235.944C862.859 236.424 863.008 236.995 863.008 237.656C863.008 238.317 862.859 238.888 862.56 239.368C862.261 239.848 861.845 240.221 861.312 240.488C860.789 240.744 860.171 240.872 859.456 240.872H857.008V245H855.728V234.44H859.456ZM859.264 239.672C860.096 239.672 860.704 239.501 861.088 239.16C861.472 238.808 861.664 238.307 861.664 237.656C861.664 236.995 861.472 236.493 861.088 236.152C860.704 235.811 860.096 235.64 859.264 235.64H857.008V239.672H859.264ZM865.254 245V237H866.294L866.47 238.312C866.694 237.821 867.019 237.453 867.446 237.208C867.883 236.963 868.411 236.84 869.03 236.84C869.168 236.84 869.318 236.851 869.478 236.872C869.648 236.893 869.792 236.936 869.91 237L869.686 238.168C869.568 238.125 869.44 238.093 869.302 238.072C869.163 238.051 868.966 238.04 868.71 238.04C868.379 238.04 868.043 238.136 867.702 238.328C867.371 238.52 867.094 238.813 866.87 239.208C866.646 239.592 866.534 240.083 866.534 240.68V245H865.254ZM872.425 235.464C872.137 235.464 871.902 235.379 871.721 235.208C871.55 235.027 871.465 234.792 871.465 234.504C871.465 234.216 871.55 233.987 871.721 233.816C871.902 233.635 872.137 233.544 872.425 233.544C872.713 233.544 872.942 233.635 873.113 233.816C873.294 233.987 873.385 234.216 873.385 234.504C873.385 234.792 873.294 235.027 873.113 235.208C872.942 235.379 872.713 235.464 872.425 235.464ZM873.065 237V245H871.785V237H873.065ZM881.331 237H882.675L879.347 245H878.067L874.739 237H876.195L878.723 243.704L881.331 237ZM888.816 239.832C888.816 239.235 888.656 238.776 888.336 238.456C888.016 238.125 887.563 237.96 886.976 237.96C886.422 237.96 885.952 238.083 885.568 238.328C885.184 238.563 884.902 238.947 884.72 239.48L883.68 238.84C883.894 238.243 884.288 237.763 884.864 237.4C885.44 237.027 886.155 236.84 887.008 236.84C887.584 236.84 888.107 236.941 888.576 237.144C889.046 237.336 889.414 237.635 889.68 238.04C889.958 238.435 890.096 238.947 890.096 239.576V243.448C890.096 243.832 890.299 244.024 890.704 244.024C890.907 244.024 891.104 243.997 891.296 243.944L891.232 244.952C891.019 245.059 890.742 245.112 890.4 245.112C890.091 245.112 889.814 245.053 889.568 244.936C889.323 244.819 889.131 244.643 888.992 244.408C888.854 244.163 888.784 243.859 888.784 243.496V243.336L889.104 243.384C888.976 243.8 888.758 244.141 888.448 244.408C888.139 244.664 887.792 244.856 887.408 244.984C887.024 245.101 886.646 245.16 886.272 245.16C885.803 245.16 885.366 245.08 884.96 244.92C884.555 244.76 884.23 244.52 883.984 244.2C883.75 243.869 883.632 243.464 883.632 242.984C883.632 242.387 883.83 241.896 884.224 241.512C884.63 241.117 885.19 240.851 885.904 240.712L889.072 240.088V241.144L886.496 241.672C885.974 241.779 885.584 241.928 885.328 242.12C885.072 242.312 884.944 242.579 884.944 242.92C884.944 243.251 885.072 243.523 885.328 243.736C885.595 243.939 885.968 244.04 886.448 244.04C886.758 244.04 887.051 244.003 887.328 243.928C887.616 243.843 887.872 243.72 888.096 243.56C888.32 243.389 888.496 243.181 888.624 242.936C888.752 242.68 888.816 242.381 888.816 242.04V239.832ZM896.519 236.84C897.073 236.84 897.559 236.925 897.975 237.096C898.401 237.267 898.769 237.512 899.079 237.832C899.388 238.152 899.639 238.531 899.831 238.968L898.615 239.544C898.444 239.032 898.183 238.643 897.831 238.376C897.489 238.099 897.041 237.96 896.487 237.96C895.953 237.96 895.495 238.083 895.111 238.328C894.727 238.563 894.433 238.909 894.231 239.368C894.028 239.816 893.927 240.36 893.927 241C893.927 241.629 894.028 242.173 894.231 242.632C894.433 243.091 894.727 243.443 895.111 243.688C895.495 243.923 895.953 244.04 896.487 244.04C896.903 244.04 897.26 243.976 897.559 243.848C897.868 243.72 898.119 243.533 898.311 243.288C898.513 243.043 898.652 242.744 898.727 242.392L899.911 242.808C899.729 243.299 899.479 243.72 899.159 244.072C898.849 244.424 898.471 244.696 898.023 244.888C897.585 245.069 897.084 245.16 896.519 245.16C895.772 245.16 895.105 244.995 894.519 244.664C893.932 244.333 893.473 243.859 893.143 243.24C892.812 242.611 892.647 241.864 892.647 241C892.647 240.136 892.812 239.395 893.143 238.776C893.473 238.147 893.932 237.667 894.519 237.336C895.105 237.005 895.772 236.84 896.519 236.84ZM908.439 237L904.679 246.344C904.476 246.867 904.252 247.277 904.007 247.576C903.772 247.885 903.506 248.104 903.207 248.232C902.919 248.371 902.583 248.44 902.199 248.44C901.836 248.44 901.5 248.387 901.191 248.28C900.892 248.184 900.626 248.051 900.391 247.88L900.743 246.76C900.956 246.952 901.18 247.091 901.415 247.176C901.66 247.272 901.9 247.32 902.135 247.32C902.412 247.32 902.674 247.235 902.919 247.064C903.164 246.893 903.388 246.547 903.591 246.024L904.007 244.984L903.207 243.08L900.663 237H902.119L904.119 242.216L904.615 243.64L905.191 242.056L907.063 237H908.439ZM919.128 234.44C919.843 234.44 920.461 234.573 920.984 234.84C921.517 235.096 921.933 235.464 922.232 235.944C922.531 236.424 922.68 236.995 922.68 237.656C922.68 238.317 922.531 238.888 922.232 239.368C921.933 239.848 921.517 240.221 920.984 240.488C920.461 240.744 919.843 240.872 919.128 240.872H916.68V245H915.4V234.44H919.128ZM918.936 239.672C919.768 239.672 920.376 239.501 920.76 239.16C921.144 238.808 921.336 238.307 921.336 237.656C921.336 236.995 921.144 236.493 920.76 236.152C920.376 235.811 919.768 235.64 918.936 235.64H916.68V239.672H918.936ZM928.097 236.84C928.854 236.84 929.521 237.005 930.097 237.336C930.684 237.667 931.142 238.147 931.473 238.776C931.804 239.395 931.969 240.136 931.969 241C931.969 241.864 931.804 242.611 931.473 243.24C931.142 243.859 930.684 244.333 930.097 244.664C929.521 244.995 928.854 245.16 928.097 245.16C927.35 245.16 926.684 244.995 926.097 244.664C925.51 244.333 925.052 243.859 924.721 243.24C924.39 242.611 924.225 241.864 924.225 241C924.225 240.136 924.39 239.395 924.721 238.776C925.052 238.147 925.51 237.667 926.097 237.336C926.684 237.005 927.35 236.84 928.097 236.84ZM928.097 237.944C927.553 237.944 927.089 238.067 926.705 238.312C926.321 238.557 926.022 238.909 925.809 239.368C925.606 239.816 925.505 240.36 925.505 241C925.505 241.629 925.606 242.173 925.809 242.632C926.022 243.091 926.321 243.443 926.705 243.688C927.089 243.933 927.553 244.056 928.097 244.056C928.641 244.056 929.105 243.933 929.489 243.688C929.873 243.443 930.166 243.091 930.369 242.632C930.582 242.173 930.689 241.629 930.689 241C930.689 240.36 930.582 239.816 930.369 239.368C930.166 238.909 929.873 238.557 929.489 238.312C929.105 238.067 928.641 237.944 928.097 237.944ZM935.595 233.32V242.968C935.595 243.373 935.669 243.656 935.819 243.816C935.968 243.965 936.208 244.04 936.539 244.04C936.752 244.04 936.928 244.024 937.067 243.992C937.205 243.96 937.392 243.901 937.627 243.816L937.419 244.936C937.248 245.011 937.061 245.064 936.859 245.096C936.656 245.139 936.448 245.16 936.235 245.16C935.584 245.16 935.099 244.984 934.779 244.632C934.469 244.28 934.315 243.741 934.315 243.016V233.32H935.595ZM939.909 235.464C939.621 235.464 939.387 235.379 939.205 235.208C939.035 235.027 938.949 234.792 938.949 234.504C938.949 234.216 939.035 233.987 939.205 233.816C939.387 233.635 939.621 233.544 939.909 233.544C940.197 233.544 940.427 233.635 940.597 233.816C940.779 233.987 940.869 234.216 940.869 234.504C940.869 234.792 940.779 235.027 940.597 235.208C940.427 235.379 940.197 235.464 939.909 235.464ZM940.549 237V245H939.269V237H940.549ZM946.831 236.84C947.386 236.84 947.871 236.925 948.287 237.096C948.714 237.267 949.082 237.512 949.391 237.832C949.701 238.152 949.951 238.531 950.143 238.968L948.927 239.544C948.757 239.032 948.495 238.643 948.143 238.376C947.802 238.099 947.354 237.96 946.799 237.96C946.266 237.96 945.807 238.083 945.423 238.328C945.039 238.563 944.746 238.909 944.543 239.368C944.341 239.816 944.239 240.36 944.239 241C944.239 241.629 944.341 242.173 944.543 242.632C944.746 243.091 945.039 243.443 945.423 243.688C945.807 243.923 946.266 244.04 946.799 244.04C947.215 244.04 947.573 243.976 947.871 243.848C948.181 243.72 948.431 243.533 948.623 243.288C948.826 243.043 948.965 242.744 949.039 242.392L950.223 242.808C950.042 243.299 949.791 243.72 949.471 244.072C949.162 244.424 948.783 244.696 948.335 244.888C947.898 245.069 947.397 245.16 946.831 245.16C946.085 245.16 945.418 244.995 944.831 244.664C944.245 244.333 943.786 243.859 943.455 243.24C943.125 242.611 942.959 241.864 942.959 241C942.959 240.136 943.125 239.395 943.455 238.776C943.786 238.147 944.245 237.667 944.831 237.336C945.418 237.005 946.085 236.84 946.831 236.84ZM958.752 237L954.992 246.344C954.789 246.867 954.565 247.277 954.32 247.576C954.085 247.885 953.818 248.104 953.52 248.232C953.232 248.371 952.896 248.44 952.512 248.44C952.149 248.44 951.813 248.387 951.504 248.28C951.205 248.184 950.938 248.051 950.704 247.88L951.056 246.76C951.269 246.952 951.493 247.091 951.728 247.176C951.973 247.272 952.213 247.32 952.448 247.32C952.725 247.32 952.986 247.235 953.232 247.064C953.477 246.893 953.701 246.547 953.904 246.024L954.32 244.984L953.52 243.08L950.976 237H952.432L954.432 242.216L954.928 243.64L955.504 242.056L957.376 237H958.752Z" fill="white"/>
<path d="M1184.42 113.304C1183.39 113.304 1182.51 113.139 1181.8 112.808C1181.1 112.477 1180.56 112.024 1180.18 111.448C1179.81 110.861 1179.62 110.2 1179.62 109.464H1181.85C1181.85 109.773 1181.93 110.077 1182.1 110.376C1182.27 110.664 1182.55 110.899 1182.92 111.08C1183.3 111.261 1183.81 111.352 1184.42 111.352C1184.98 111.352 1185.44 111.272 1185.82 111.112C1186.19 110.952 1186.47 110.744 1186.65 110.488C1186.83 110.221 1186.92 109.923 1186.92 109.592C1186.92 109.176 1186.74 108.845 1186.39 108.6C1186.04 108.344 1185.5 108.184 1184.76 108.12L1183.74 108.04C1182.62 107.944 1181.72 107.597 1181.05 107C1180.39 106.392 1180.06 105.592 1180.06 104.6C1180.06 103.853 1180.23 103.213 1180.58 102.68C1180.94 102.136 1181.43 101.72 1182.06 101.432C1182.7 101.133 1183.44 100.984 1184.3 100.984C1185.18 100.984 1185.94 101.139 1186.58 101.448C1187.22 101.757 1187.72 102.195 1188.07 102.76C1188.42 103.315 1188.6 103.971 1188.6 104.728H1186.38C1186.38 104.408 1186.3 104.115 1186.14 103.848C1185.99 103.571 1185.76 103.352 1185.45 103.192C1185.15 103.021 1184.77 102.936 1184.3 102.936C1183.85 102.936 1183.47 103.011 1183.18 103.16C1182.88 103.309 1182.65 103.512 1182.5 103.768C1182.35 104.024 1182.28 104.301 1182.28 104.6C1182.28 104.963 1182.41 105.283 1182.68 105.56C1182.95 105.827 1183.37 105.981 1183.94 106.024L1184.97 106.12C1185.8 106.184 1186.53 106.36 1187.16 106.648C1187.79 106.936 1188.27 107.325 1188.62 107.816C1188.97 108.307 1189.14 108.899 1189.14 109.592C1189.14 110.328 1188.95 110.979 1188.57 111.544C1188.18 112.099 1187.63 112.531 1186.92 112.84C1186.22 113.149 1185.38 113.304 1184.42 113.304ZM1194.9 113.304C1194.14 113.304 1193.49 113.176 1192.93 112.92C1192.39 112.664 1191.93 112.323 1191.56 111.896C1191.19 111.469 1190.92 110.989 1190.74 110.456C1190.56 109.923 1190.47 109.379 1190.47 108.824V108.52C1190.47 107.933 1190.56 107.373 1190.74 106.84C1190.93 106.296 1191.22 105.816 1191.59 105.4C1191.96 104.973 1192.42 104.637 1192.97 104.392C1193.52 104.136 1194.16 104.008 1194.89 104.008C1195.64 104.008 1196.32 104.157 1196.92 104.456C1197.51 104.744 1197.99 105.149 1198.34 105.672C1198.7 106.195 1198.91 106.803 1198.95 107.496H1196.79C1196.74 107.048 1196.54 106.675 1196.21 106.376C1195.89 106.077 1195.45 105.928 1194.89 105.928C1194.39 105.928 1193.98 106.045 1193.65 106.28C1193.33 106.515 1193.09 106.84 1192.93 107.256C1192.77 107.661 1192.69 108.131 1192.69 108.664C1192.69 109.176 1192.77 109.64 1192.92 110.056C1193.08 110.472 1193.32 110.797 1193.64 111.032C1193.97 111.267 1194.39 111.384 1194.9 111.384C1195.29 111.384 1195.62 111.315 1195.89 111.176C1196.17 111.037 1196.39 110.845 1196.55 110.6C1196.72 110.355 1196.83 110.077 1196.87 109.768H1199.03C1198.99 110.472 1198.78 111.091 1198.41 111.624C1198.04 112.147 1197.56 112.557 1196.95 112.856C1196.35 113.155 1195.67 113.304 1194.9 113.304ZM1200.81 113V104.312H1202.57V107.992H1202.52C1202.52 106.744 1202.79 105.8 1203.32 105.16C1203.86 104.52 1204.64 104.2 1205.67 104.2H1205.99V106.136H1205.39C1204.64 106.136 1204.06 106.339 1203.64 106.744C1203.24 107.139 1203.03 107.715 1203.03 108.472V113H1200.81ZM1211.31 113.304C1210.56 113.304 1209.91 113.176 1209.34 112.92C1208.79 112.664 1208.32 112.323 1207.95 111.896C1207.59 111.459 1207.31 110.973 1207.12 110.44C1206.93 109.907 1206.84 109.363 1206.84 108.808V108.504C1206.84 107.928 1206.93 107.373 1207.12 106.84C1207.31 106.296 1207.59 105.816 1207.95 105.4C1208.32 104.973 1208.78 104.637 1209.32 104.392C1209.87 104.136 1210.5 104.008 1211.21 104.008C1212.15 104.008 1212.93 104.216 1213.56 104.632C1214.2 105.037 1214.68 105.576 1215 106.248C1215.32 106.909 1215.48 107.624 1215.48 108.392V109.192H1207.79V107.832H1214.09L1213.4 108.504C1213.4 107.949 1213.32 107.475 1213.16 107.08C1213 106.685 1212.76 106.381 1212.43 106.168C1212.11 105.955 1211.7 105.848 1211.21 105.848C1210.72 105.848 1210.31 105.96 1209.96 106.184C1209.62 106.408 1209.36 106.733 1209.18 107.16C1209.01 107.576 1208.92 108.077 1208.92 108.664C1208.92 109.208 1209.01 109.693 1209.18 110.12C1209.35 110.536 1209.61 110.867 1209.96 111.112C1210.32 111.347 1210.76 111.464 1211.31 111.464C1211.85 111.464 1212.29 111.357 1212.64 111.144C1212.98 110.92 1213.2 110.648 1213.29 110.328H1215.34C1215.21 110.925 1214.97 111.448 1214.6 111.896C1214.24 112.344 1213.78 112.691 1213.21 112.936C1212.66 113.181 1212.02 113.304 1211.31 113.304ZM1221.23 113.304C1220.48 113.304 1219.83 113.176 1219.26 112.92C1218.71 112.664 1218.24 112.323 1217.87 111.896C1217.51 111.459 1217.23 110.973 1217.04 110.44C1216.86 109.907 1216.77 109.363 1216.77 108.808V108.504C1216.77 107.928 1216.86 107.373 1217.04 106.84C1217.23 106.296 1217.51 105.816 1217.87 105.4C1218.24 104.973 1218.7 104.637 1219.25 104.392C1219.79 104.136 1220.42 104.008 1221.13 104.008C1222.07 104.008 1222.86 104.216 1223.49 104.632C1224.13 105.037 1224.61 105.576 1224.93 106.248C1225.25 106.909 1225.41 107.624 1225.41 108.392V109.192H1217.71V107.832H1224.01L1223.33 108.504C1223.33 107.949 1223.25 107.475 1223.09 107.08C1222.93 106.685 1222.68 106.381 1222.35 106.168C1222.03 105.955 1221.62 105.848 1221.13 105.848C1220.64 105.848 1220.23 105.96 1219.89 106.184C1219.54 106.408 1219.28 106.733 1219.1 107.16C1218.93 107.576 1218.85 108.077 1218.85 108.664C1218.85 109.208 1218.93 109.693 1219.1 110.12C1219.27 110.536 1219.53 110.867 1219.89 111.112C1220.24 111.347 1220.69 111.464 1221.23 111.464C1221.77 111.464 1222.22 111.357 1222.56 111.144C1222.9 110.92 1223.12 110.648 1223.21 110.328H1225.26C1225.13 110.925 1224.89 111.448 1224.53 111.896C1224.16 112.344 1223.7 112.691 1223.13 112.936C1222.58 113.181 1221.94 113.304 1221.23 113.304ZM1227.26 113V104.312H1229.02V108.04H1228.86C1228.86 107.155 1228.98 106.419 1229.22 105.832C1229.45 105.235 1229.8 104.787 1230.26 104.488C1230.73 104.189 1231.31 104.04 1232 104.04H1232.1C1233.13 104.04 1233.91 104.376 1234.45 105.048C1234.98 105.709 1235.25 106.701 1235.25 108.024V113H1233.02V107.832C1233.02 107.299 1232.87 106.867 1232.56 106.536C1232.26 106.205 1231.85 106.04 1231.31 106.04C1230.77 106.04 1230.33 106.211 1229.98 106.552C1229.65 106.883 1229.49 107.331 1229.49 107.896V113H1227.26ZM1241.27 113V101.24H1243.54V113H1241.27ZM1248.4 113L1244.82 107.912H1247.36L1251.06 113H1248.4ZM1242.87 109.096V107.256H1245.84C1246.26 107.256 1246.62 107.171 1246.92 107C1247.23 106.829 1247.47 106.589 1247.64 106.28C1247.81 105.971 1247.89 105.619 1247.89 105.224C1247.89 104.819 1247.81 104.461 1247.64 104.152C1247.47 103.843 1247.23 103.603 1246.92 103.432C1246.62 103.261 1246.26 103.176 1245.84 103.176H1242.87V101.24H1245.6C1246.54 101.24 1247.35 101.379 1248.04 101.656C1248.73 101.933 1249.26 102.355 1249.64 102.92C1250.01 103.485 1250.2 104.195 1250.2 105.048V105.304C1250.2 106.168 1250 106.877 1249.62 107.432C1249.25 107.987 1248.72 108.403 1248.04 108.68C1247.35 108.957 1246.54 109.096 1245.6 109.096H1242.87ZM1256.34 113.304C1255.59 113.304 1254.94 113.176 1254.37 112.92C1253.82 112.664 1253.35 112.323 1252.98 111.896C1252.62 111.459 1252.34 110.973 1252.15 110.44C1251.97 109.907 1251.88 109.363 1251.88 108.808V108.504C1251.88 107.928 1251.97 107.373 1252.15 106.84C1252.34 106.296 1252.62 105.816 1252.98 105.4C1253.35 104.973 1253.81 104.637 1254.36 104.392C1254.9 104.136 1255.53 104.008 1256.24 104.008C1257.18 104.008 1257.97 104.216 1258.6 104.632C1259.24 105.037 1259.72 105.576 1260.04 106.248C1260.36 106.909 1260.52 107.624 1260.52 108.392V109.192H1252.82V107.832H1259.12L1258.44 108.504C1258.44 107.949 1258.36 107.475 1258.2 107.08C1258.04 106.685 1257.79 106.381 1257.46 106.168C1257.14 105.955 1256.73 105.848 1256.24 105.848C1255.75 105.848 1255.34 105.96 1255 106.184C1254.65 106.408 1254.39 106.733 1254.21 107.16C1254.04 107.576 1253.96 108.077 1253.96 108.664C1253.96 109.208 1254.04 109.693 1254.21 110.12C1254.38 110.536 1254.64 110.867 1255 111.112C1255.35 111.347 1255.8 111.464 1256.34 111.464C1256.88 111.464 1257.33 111.357 1257.67 111.144C1258.01 110.92 1258.23 110.648 1258.32 110.328H1260.37C1260.24 110.925 1260 111.448 1259.64 111.896C1259.27 112.344 1258.81 112.691 1258.24 112.936C1257.69 113.181 1257.05 113.304 1256.34 113.304ZM1266.23 113.304C1265.47 113.304 1264.82 113.176 1264.26 112.92C1263.72 112.664 1263.26 112.323 1262.89 111.896C1262.52 111.469 1262.25 110.989 1262.07 110.456C1261.89 109.923 1261.8 109.379 1261.8 108.824V108.52C1261.8 107.933 1261.89 107.373 1262.07 106.84C1262.26 106.296 1262.54 105.816 1262.92 105.4C1263.29 104.973 1263.75 104.637 1264.29 104.392C1264.85 104.136 1265.49 104.008 1266.21 104.008C1266.97 104.008 1267.65 104.157 1268.25 104.456C1268.84 104.744 1269.32 105.149 1269.67 105.672C1270.03 106.195 1270.23 106.803 1270.28 107.496H1268.12C1268.06 107.048 1267.87 106.675 1267.54 106.376C1267.22 106.077 1266.78 105.928 1266.21 105.928C1265.72 105.928 1265.31 106.045 1264.98 106.28C1264.66 106.515 1264.42 106.84 1264.26 107.256C1264.1 107.661 1264.02 108.131 1264.02 108.664C1264.02 109.176 1264.1 109.64 1264.25 110.056C1264.41 110.472 1264.65 110.797 1264.97 111.032C1265.3 111.267 1265.72 111.384 1266.23 111.384C1266.61 111.384 1266.94 111.315 1267.22 111.176C1267.5 111.037 1267.72 110.845 1267.88 110.6C1268.05 110.355 1268.15 110.077 1268.2 109.768H1270.36C1270.31 110.472 1270.11 111.091 1269.73 111.624C1269.37 112.147 1268.89 112.557 1268.28 112.856C1267.68 113.155 1267 113.304 1266.23 113.304ZM1276.32 113.304C1275.55 113.304 1274.87 113.181 1274.28 112.936C1273.7 112.691 1273.2 112.36 1272.8 111.944C1272.39 111.517 1272.08 111.037 1271.87 110.504C1271.66 109.971 1271.56 109.416 1271.56 108.84V108.504C1271.56 107.907 1271.67 107.341 1271.88 106.808C1272.11 106.264 1272.42 105.784 1272.83 105.368C1273.24 104.941 1273.74 104.611 1274.33 104.376C1274.92 104.131 1275.58 104.008 1276.32 104.008C1277.05 104.008 1277.71 104.131 1278.3 104.376C1278.89 104.611 1279.38 104.941 1279.79 105.368C1280.2 105.784 1280.52 106.264 1280.73 106.808C1280.94 107.341 1281.05 107.907 1281.05 108.504V108.84C1281.05 109.416 1280.94 109.971 1280.73 110.504C1280.53 111.037 1280.22 111.517 1279.82 111.944C1279.41 112.36 1278.92 112.691 1278.33 112.936C1277.74 113.181 1277.07 113.304 1276.32 113.304ZM1276.32 111.4C1276.86 111.4 1277.32 111.283 1277.69 111.048C1278.06 110.803 1278.35 110.477 1278.54 110.072C1278.73 109.656 1278.83 109.187 1278.83 108.664C1278.83 108.131 1278.73 107.661 1278.52 107.256C1278.33 106.84 1278.04 106.515 1277.66 106.28C1277.29 106.035 1276.84 105.912 1276.32 105.912C1275.79 105.912 1275.34 106.035 1274.96 106.28C1274.58 106.515 1274.29 106.84 1274.09 107.256C1273.89 107.661 1273.79 108.131 1273.79 108.664C1273.79 109.187 1273.88 109.656 1274.08 110.072C1274.28 110.477 1274.57 110.803 1274.94 111.048C1275.31 111.283 1275.77 111.4 1276.32 111.4ZM1283 113V104.312H1284.76V107.992H1284.71C1284.71 106.744 1284.98 105.8 1285.51 105.16C1286.04 104.52 1286.83 104.2 1287.86 104.2H1288.18V106.136H1287.57C1286.83 106.136 1286.25 106.339 1285.83 106.744C1285.43 107.139 1285.22 107.715 1285.22 108.472V113H1283ZM1293.21 113.288C1292.6 113.288 1292.04 113.176 1291.53 112.952C1291.02 112.728 1290.57 112.413 1290.2 112.008C1289.83 111.603 1289.54 111.133 1289.34 110.6C1289.13 110.056 1289.03 109.469 1289.03 108.84V108.504C1289.03 107.885 1289.13 107.304 1289.32 106.76C1289.52 106.216 1289.8 105.741 1290.15 105.336C1290.51 104.931 1290.95 104.616 1291.45 104.392C1291.96 104.157 1292.53 104.04 1293.14 104.04C1293.83 104.04 1294.42 104.189 1294.94 104.488C1295.46 104.776 1295.87 105.213 1296.18 105.8C1296.49 106.387 1296.66 107.123 1296.7 108.008L1296.04 107.24V101.32H1298.26V113H1296.5V109.304H1296.89C1296.86 110.189 1296.67 110.931 1296.34 111.528C1296.01 112.115 1295.58 112.557 1295.03 112.856C1294.5 113.144 1293.89 113.288 1293.21 113.288ZM1293.7 111.416C1294.14 111.416 1294.54 111.32 1294.9 111.128C1295.27 110.925 1295.55 110.637 1295.77 110.264C1295.99 109.88 1296.1 109.432 1296.1 108.92V108.28C1296.1 107.768 1295.99 107.341 1295.77 107C1295.54 106.648 1295.25 106.381 1294.89 106.2C1294.53 106.008 1294.13 105.912 1293.7 105.912C1293.22 105.912 1292.8 106.029 1292.42 106.264C1292.06 106.488 1291.77 106.808 1291.56 107.224C1291.36 107.64 1291.26 108.125 1291.26 108.68C1291.26 109.235 1291.36 109.72 1291.58 110.136C1291.79 110.541 1292.08 110.856 1292.44 111.08C1292.81 111.304 1293.23 111.416 1293.7 111.416Z" fill="white"/>
<path d="M1180.73 157V146.44H1184.49C1185.74 146.44 1186.65 146.701 1187.22 147.224C1187.8 147.747 1188.09 148.456 1188.09 149.352C1188.09 149.885 1187.93 150.371 1187.62 150.808C1187.31 151.235 1186.88 151.507 1186.31 151.624V151.64C1186.94 151.757 1187.44 152.045 1187.8 152.504C1188.17 152.952 1188.36 153.464 1188.36 154.04C1188.36 154.936 1188.02 155.656 1187.35 156.2C1186.68 156.733 1185.72 157 1184.47 157H1180.73ZM1182.01 155.8H1184.78C1185.53 155.8 1186.09 155.645 1186.46 155.336C1186.83 155.027 1187.02 154.595 1187.02 154.04C1187.02 153.475 1186.83 153.043 1186.46 152.744C1186.09 152.435 1185.53 152.28 1184.78 152.28H1182.01V155.8ZM1182.01 151.08H1184.5C1186 151.08 1186.74 150.504 1186.74 149.352C1186.74 148.211 1186 147.64 1184.5 147.64H1182.01V151.08ZM1190.94 157V149H1191.98L1192.16 150.312C1192.38 149.821 1192.71 149.453 1193.13 149.208C1193.57 148.963 1194.1 148.84 1194.72 148.84C1194.86 148.84 1195.01 148.851 1195.17 148.872C1195.34 148.893 1195.48 148.936 1195.6 149L1195.37 150.168C1195.26 150.125 1195.13 150.093 1194.99 150.072C1194.85 150.051 1194.65 150.04 1194.4 150.04C1194.07 150.04 1193.73 150.136 1193.39 150.328C1193.06 150.52 1192.78 150.813 1192.56 151.208C1192.33 151.592 1192.22 152.083 1192.22 152.68V157H1190.94ZM1200.53 148.84C1201.29 148.84 1201.96 149.005 1202.53 149.336C1203.12 149.667 1203.58 150.147 1203.91 150.776C1204.24 151.395 1204.41 152.136 1204.41 153C1204.41 153.864 1204.24 154.611 1203.91 155.24C1203.58 155.859 1203.12 156.333 1202.53 156.664C1201.96 156.995 1201.29 157.16 1200.53 157.16C1199.79 157.16 1199.12 156.995 1198.53 156.664C1197.95 156.333 1197.49 155.859 1197.16 155.24C1196.83 154.611 1196.66 153.864 1196.66 153C1196.66 152.136 1196.83 151.395 1197.16 150.776C1197.49 150.147 1197.95 149.667 1198.53 149.336C1199.12 149.005 1199.79 148.84 1200.53 148.84ZM1200.53 149.944C1199.99 149.944 1199.53 150.067 1199.14 150.312C1198.76 150.557 1198.46 150.909 1198.25 151.368C1198.04 151.816 1197.94 152.36 1197.94 153C1197.94 153.629 1198.04 154.173 1198.25 154.632C1198.46 155.091 1198.76 155.443 1199.14 155.688C1199.53 155.933 1199.99 156.056 1200.53 156.056C1201.08 156.056 1201.54 155.933 1201.93 155.688C1202.31 155.443 1202.6 155.091 1202.81 154.632C1203.02 154.173 1203.13 153.629 1203.13 153C1203.13 152.36 1203.02 151.816 1202.81 151.368C1202.6 150.909 1202.31 150.557 1201.93 150.312C1201.54 150.067 1201.08 149.944 1200.53 149.944ZM1216.6 149H1218.02L1215.24 157H1213.96L1211.7 150.632L1209.57 157H1208.29L1205.51 149H1206.93L1208.95 155.512L1211.13 149H1212.41L1214.58 155.512L1216.6 149ZM1222.65 157.16C1221.87 157.16 1221.15 156.995 1220.49 156.664C1219.84 156.333 1219.34 155.864 1218.99 155.256L1220.07 154.472C1220.31 154.963 1220.65 155.347 1221.1 155.624C1221.56 155.901 1222.11 156.04 1222.75 156.04C1223.31 156.04 1223.75 155.933 1224.07 155.72C1224.39 155.496 1224.55 155.208 1224.55 154.856C1224.55 154.632 1224.48 154.429 1224.33 154.248C1224.19 154.056 1223.92 153.917 1223.51 153.832L1221.59 153.432C1220.81 153.272 1220.25 153.005 1219.91 152.632C1219.58 152.259 1219.42 151.795 1219.42 151.24C1219.42 150.803 1219.54 150.403 1219.79 150.04C1220.04 149.677 1220.4 149.389 1220.86 149.176C1221.33 148.952 1221.88 148.84 1222.51 148.84C1223.29 148.84 1223.96 148.995 1224.51 149.304C1225.05 149.613 1225.45 150.051 1225.72 150.616L1224.65 151.32C1224.47 150.851 1224.17 150.509 1223.77 150.296C1223.36 150.072 1222.94 149.96 1222.51 149.96C1222.12 149.96 1221.79 150.013 1221.51 150.12C1221.25 150.227 1221.04 150.376 1220.89 150.568C1220.75 150.749 1220.68 150.957 1220.68 151.192C1220.68 151.427 1220.76 151.645 1220.92 151.848C1221.08 152.04 1221.38 152.179 1221.82 152.264L1223.82 152.68C1224.56 152.829 1225.09 153.075 1225.39 153.416C1225.68 153.757 1225.83 154.173 1225.83 154.664C1225.83 155.165 1225.7 155.608 1225.43 155.992C1225.17 156.365 1224.79 156.653 1224.31 156.856C1223.83 157.059 1223.28 157.16 1222.65 157.16ZM1231.55 157.16C1230.79 157.16 1230.12 156.995 1229.52 156.664C1228.93 156.333 1228.47 155.859 1228.14 155.24C1227.81 154.611 1227.65 153.864 1227.65 153C1227.65 152.136 1227.81 151.395 1228.14 150.776C1228.47 150.147 1228.93 149.667 1229.5 149.336C1230.08 149.005 1230.73 148.84 1231.47 148.84C1232.22 148.84 1232.85 149 1233.37 149.32C1233.91 149.64 1234.31 150.077 1234.59 150.632C1234.87 151.176 1235.01 151.789 1235.01 152.472C1235.01 152.653 1235 152.819 1234.99 152.968C1234.98 153.117 1234.96 153.251 1234.94 153.368H1228.48V152.232H1234.38L1233.73 152.36C1233.73 151.592 1233.51 151 1233.09 150.584C1232.67 150.168 1232.12 149.96 1231.44 149.96C1230.92 149.96 1230.46 150.083 1230.08 150.328C1229.71 150.563 1229.41 150.909 1229.2 151.368C1229 151.816 1228.89 152.36 1228.89 153C1228.89 153.629 1229 154.173 1229.21 154.632C1229.43 155.091 1229.73 155.443 1230.11 155.688C1230.51 155.923 1230.97 156.04 1231.52 156.04C1232.11 156.04 1232.58 155.928 1232.94 155.704C1233.32 155.48 1233.61 155.176 1233.84 154.792L1234.85 155.384C1234.64 155.747 1234.38 156.061 1234.06 156.328C1233.75 156.595 1233.39 156.803 1232.96 156.952C1232.54 157.091 1232.07 157.16 1231.55 157.16ZM1237.44 157V149H1238.48L1238.66 150.312C1238.88 149.821 1239.21 149.453 1239.63 149.208C1240.07 148.963 1240.6 148.84 1241.22 148.84C1241.36 148.84 1241.51 148.851 1241.67 148.872C1241.84 148.893 1241.98 148.936 1242.1 149L1241.87 150.168C1241.76 150.125 1241.63 150.093 1241.49 150.072C1241.35 150.051 1241.15 150.04 1240.9 150.04C1240.57 150.04 1240.23 150.136 1239.89 150.328C1239.56 150.52 1239.28 150.813 1239.06 151.208C1238.83 151.592 1238.72 152.083 1238.72 152.68V157H1237.44ZM1250.87 157L1247.75 146.44H1249.08L1251.68 155.832L1254.16 146.44H1255.62L1258.1 155.864L1260.71 146.44H1261.97L1258.87 157H1257.28L1255.41 150.152L1254.87 147.768H1254.85L1254.31 150.152L1252.45 157H1250.87ZM1264.67 147.464C1264.39 147.464 1264.15 147.379 1263.97 147.208C1263.8 147.027 1263.71 146.792 1263.71 146.504C1263.71 146.216 1263.8 145.987 1263.97 145.816C1264.15 145.635 1264.39 145.544 1264.67 145.544C1264.96 145.544 1265.19 145.635 1265.36 145.816C1265.54 145.987 1265.63 146.216 1265.63 146.504C1265.63 146.792 1265.54 147.027 1265.36 147.208C1265.19 147.379 1264.96 147.464 1264.67 147.464ZM1265.31 149V157H1264.03V149H1265.31ZM1268.28 157V149H1269.4L1269.52 150.792L1269.31 150.616C1269.48 150.189 1269.71 149.848 1270 149.592C1270.28 149.325 1270.62 149.133 1270.99 149.016C1271.37 148.899 1271.77 148.84 1272.17 148.84C1272.75 148.84 1273.27 148.952 1273.74 149.176C1274.21 149.389 1274.58 149.72 1274.86 150.168C1275.15 150.616 1275.29 151.187 1275.29 151.88V157H1274.01V152.328C1274.01 151.443 1273.82 150.829 1273.44 150.488C1273.06 150.136 1272.6 149.96 1272.04 149.96C1271.66 149.96 1271.28 150.051 1270.89 150.232C1270.51 150.413 1270.19 150.707 1269.93 151.112C1269.69 151.517 1269.56 152.061 1269.56 152.744V157H1268.28ZM1281.31 157.16C1280.65 157.16 1280.04 156.995 1279.49 156.664C1278.93 156.333 1278.49 155.859 1278.16 155.24C1277.83 154.611 1277.66 153.864 1277.66 153C1277.66 152.115 1277.84 151.363 1278.19 150.744C1278.54 150.125 1279.01 149.656 1279.58 149.336C1280.16 149.005 1280.78 148.84 1281.44 148.84C1282.1 148.84 1282.67 149.011 1283.15 149.352C1283.64 149.693 1283.97 150.147 1284.13 150.712L1283.97 150.824V145.32H1285.25V157H1284.13L1284.02 155.064L1284.19 154.968C1284.12 155.437 1283.94 155.837 1283.65 156.168C1283.37 156.488 1283.02 156.733 1282.61 156.904C1282.2 157.075 1281.77 157.16 1281.31 157.16ZM1281.44 156.04C1281.95 156.04 1282.39 155.912 1282.77 155.656C1283.15 155.4 1283.44 155.037 1283.65 154.568C1283.86 154.088 1283.97 153.528 1283.97 152.888C1283.97 152.28 1283.86 151.757 1283.65 151.32C1283.44 150.883 1283.16 150.547 1282.78 150.312C1282.42 150.077 1281.99 149.96 1281.5 149.96C1280.69 149.96 1280.06 150.237 1279.62 150.792C1279.17 151.347 1278.94 152.083 1278.94 153C1278.94 153.917 1279.16 154.653 1279.6 155.208C1280.04 155.763 1280.65 156.04 1281.44 156.04ZM1291.53 148.84C1292.29 148.84 1292.96 149.005 1293.53 149.336C1294.12 149.667 1294.58 150.147 1294.91 150.776C1295.24 151.395 1295.41 152.136 1295.41 153C1295.41 153.864 1295.24 154.611 1294.91 155.24C1294.58 155.859 1294.12 156.333 1293.53 156.664C1292.96 156.995 1292.29 157.16 1291.53 157.16C1290.79 157.16 1290.12 156.995 1289.53 156.664C1288.95 156.333 1288.49 155.859 1288.16 155.24C1287.83 154.611 1287.66 153.864 1287.66 153C1287.66 152.136 1287.83 151.395 1288.16 150.776C1288.49 150.147 1288.95 149.667 1289.53 149.336C1290.12 149.005 1290.79 148.84 1291.53 148.84ZM1291.53 149.944C1290.99 149.944 1290.53 150.067 1290.14 150.312C1289.76 150.557 1289.46 150.909 1289.25 151.368C1289.04 151.816 1288.94 152.36 1288.94 153C1288.94 153.629 1289.04 154.173 1289.25 154.632C1289.46 155.091 1289.76 155.443 1290.14 155.688C1290.53 155.933 1290.99 156.056 1291.53 156.056C1292.08 156.056 1292.54 155.933 1292.93 155.688C1293.31 155.443 1293.6 155.091 1293.81 154.632C1294.02 154.173 1294.13 153.629 1294.13 153C1294.13 152.36 1294.02 151.816 1293.81 151.368C1293.6 150.909 1293.31 150.557 1292.93 150.312C1292.54 150.067 1292.08 149.944 1291.53 149.944ZM1307.6 149H1309.02L1306.24 157H1304.96L1302.7 150.632L1300.57 157H1299.29L1296.51 149H1297.93L1299.95 155.512L1302.13 149H1303.41L1305.58 155.512L1307.6 149Z" fill="white"/>
<path d="M1184.14 189.44C1185.79 189.44 1187.09 189.899 1188.02 190.816C1188.97 191.723 1189.45 193.024 1189.45 194.72C1189.45 196.416 1188.97 197.723 1188.02 198.64C1187.09 199.547 1185.79 200 1184.14 200H1180.73V189.44H1184.14ZM1184.26 198.8C1185.47 198.8 1186.41 198.443 1187.08 197.728C1187.76 197.003 1188.1 196 1188.1 194.72C1188.1 193.44 1187.76 192.443 1187.08 191.728C1186.41 191.003 1185.47 190.64 1184.26 190.64H1182.01V198.8H1184.26ZM1195.36 200.16C1194.61 200.16 1193.93 199.995 1193.33 199.664C1192.74 199.333 1192.29 198.859 1191.96 198.24C1191.62 197.611 1191.46 196.864 1191.46 196C1191.46 195.136 1191.62 194.395 1191.96 193.776C1192.29 193.147 1192.74 192.667 1193.32 192.336C1193.89 192.005 1194.55 191.84 1195.28 191.84C1196.03 191.84 1196.66 192 1197.19 192.32C1197.72 192.64 1198.13 193.077 1198.4 193.632C1198.68 194.176 1198.82 194.789 1198.82 195.472C1198.82 195.653 1198.81 195.819 1198.8 195.968C1198.79 196.117 1198.78 196.251 1198.76 196.368H1192.29V195.232H1198.2L1197.54 195.36C1197.54 194.592 1197.33 194 1196.9 193.584C1196.48 193.168 1195.93 192.96 1195.25 192.96C1194.73 192.96 1194.28 193.083 1193.89 193.328C1193.52 193.563 1193.22 193.909 1193.01 194.368C1192.81 194.816 1192.71 195.36 1192.71 196C1192.71 196.629 1192.81 197.173 1193.03 197.632C1193.24 198.091 1193.54 198.443 1193.92 198.688C1194.32 198.923 1194.79 199.04 1195.33 199.04C1195.92 199.04 1196.39 198.928 1196.76 198.704C1197.13 198.48 1197.43 198.176 1197.65 197.792L1198.66 198.384C1198.46 198.747 1198.2 199.061 1197.88 199.328C1197.57 199.595 1197.2 199.803 1196.77 199.952C1196.36 200.091 1195.89 200.16 1195.36 200.16ZM1204.13 200.16C1203.35 200.16 1202.63 199.995 1201.97 199.664C1201.32 199.333 1200.82 198.864 1200.47 198.256L1201.56 197.472C1201.79 197.963 1202.13 198.347 1202.58 198.624C1203.04 198.901 1203.59 199.04 1204.23 199.04C1204.79 199.04 1205.24 198.933 1205.56 198.72C1205.88 198.496 1206.04 198.208 1206.04 197.856C1206.04 197.632 1205.96 197.429 1205.81 197.248C1205.67 197.056 1205.4 196.917 1205 196.832L1203.08 196.432C1202.3 196.272 1201.74 196.005 1201.4 195.632C1201.07 195.259 1200.9 194.795 1200.9 194.24C1200.9 193.803 1201.02 193.403 1201.27 193.04C1201.53 192.677 1201.88 192.389 1202.34 192.176C1202.81 191.952 1203.36 191.84 1203.99 191.84C1204.78 191.84 1205.45 191.995 1205.99 192.304C1206.53 192.613 1206.94 193.051 1207.21 193.616L1206.13 194.32C1205.95 193.851 1205.66 193.509 1205.25 193.296C1204.85 193.072 1204.43 192.96 1203.99 192.96C1203.61 192.96 1203.27 193.013 1203 193.12C1202.73 193.227 1202.52 193.376 1202.37 193.568C1202.23 193.749 1202.17 193.957 1202.17 194.192C1202.17 194.427 1202.25 194.645 1202.41 194.848C1202.57 195.04 1202.86 195.179 1203.3 195.264L1205.3 195.68C1206.05 195.829 1206.57 196.075 1206.87 196.416C1207.17 196.757 1207.32 197.173 1207.32 197.664C1207.32 198.165 1207.18 198.608 1206.92 198.992C1206.65 199.365 1206.28 199.653 1205.8 199.856C1205.32 200.059 1204.76 200.16 1204.13 200.16ZM1216.72 192L1213.26 195.456L1212.96 195.76L1210.33 198.384V196.784L1215.1 192H1216.72ZM1210.97 188.32V200H1209.69V188.32H1210.97ZM1213.37 194.8L1216.91 200H1215.36L1212.3 195.52L1213.37 194.8ZM1220.66 189.728V197.792C1220.66 198.187 1220.77 198.48 1220.99 198.672C1221.22 198.864 1221.51 198.96 1221.86 198.96C1222.17 198.96 1222.43 198.907 1222.66 198.8C1222.88 198.693 1223.08 198.549 1223.27 198.368L1223.71 199.44C1223.47 199.664 1223.17 199.84 1222.83 199.968C1222.5 200.096 1222.12 200.16 1221.68 200.16C1221.28 200.16 1220.9 200.091 1220.55 199.952C1220.19 199.803 1219.91 199.573 1219.7 199.264C1219.49 198.944 1219.39 198.528 1219.38 198.016V190.08L1220.66 189.728ZM1223.57 192V193.104H1217.78V192H1223.57ZM1228.78 191.84C1229.54 191.84 1230.21 192.005 1230.78 192.336C1231.37 192.667 1231.83 193.147 1232.16 193.776C1232.49 194.395 1232.66 195.136 1232.66 196C1232.66 196.864 1232.49 197.611 1232.16 198.24C1231.83 198.859 1231.37 199.333 1230.78 199.664C1230.21 199.995 1229.54 200.16 1228.78 200.16C1228.04 200.16 1227.37 199.995 1226.78 199.664C1226.2 199.333 1225.74 198.859 1225.41 198.24C1225.08 197.611 1224.91 196.864 1224.91 196C1224.91 195.136 1225.08 194.395 1225.41 193.776C1225.74 193.147 1226.2 192.667 1226.78 192.336C1227.37 192.005 1228.04 191.84 1228.78 191.84ZM1228.78 192.944C1228.24 192.944 1227.78 193.067 1227.39 193.312C1227.01 193.557 1226.71 193.909 1226.5 194.368C1226.29 194.816 1226.19 195.36 1226.19 196C1226.19 196.629 1226.29 197.173 1226.5 197.632C1226.71 198.091 1227.01 198.443 1227.39 198.688C1227.78 198.933 1228.24 199.056 1228.78 199.056C1229.33 199.056 1229.79 198.933 1230.18 198.688C1230.56 198.443 1230.85 198.091 1231.06 197.632C1231.27 197.173 1231.38 196.629 1231.38 196C1231.38 195.36 1231.27 194.816 1231.06 194.368C1230.85 193.909 1230.56 193.557 1230.18 193.312C1229.79 193.067 1229.33 192.944 1228.78 192.944ZM1235.07 203.36V192H1236.19L1236.3 193.952L1236.12 193.728C1236.26 193.355 1236.47 193.029 1236.75 192.752C1237.02 192.464 1237.36 192.24 1237.75 192.08C1238.15 191.92 1238.58 191.84 1239.03 191.84C1239.68 191.84 1240.28 192.005 1240.83 192.336C1241.38 192.667 1241.82 193.141 1242.15 193.76C1242.48 194.379 1242.65 195.125 1242.65 196C1242.65 196.864 1242.48 197.611 1242.14 198.24C1241.81 198.859 1241.36 199.333 1240.81 199.664C1240.26 199.995 1239.65 200.16 1238.99 200.16C1238.32 200.16 1237.74 200 1237.24 199.68C1236.75 199.349 1236.4 198.933 1236.19 198.432L1236.35 198.192V203.36H1235.07ZM1238.86 199.04C1239.65 199.04 1240.26 198.763 1240.7 198.208C1241.15 197.653 1241.37 196.917 1241.37 196C1241.37 195.083 1241.15 194.347 1240.71 193.792C1240.29 193.237 1239.68 192.96 1238.91 192.96C1238.39 192.96 1237.95 193.088 1237.56 193.344C1237.18 193.589 1236.88 193.941 1236.67 194.4C1236.45 194.848 1236.35 195.381 1236.35 196C1236.35 196.608 1236.45 197.141 1236.65 197.6C1236.86 198.059 1237.16 198.416 1237.53 198.672C1237.91 198.917 1238.36 199.04 1238.86 199.04Z" fill="white"/>
<path d="M1189.14 243H1187.78L1186.66 240.072H1181.88L1180.76 243H1179.42L1183.53 232.44H1185.05L1189.14 243ZM1182.34 238.872H1186.2L1184.26 233.672L1182.34 238.872ZM1191.05 246.36V235H1192.17L1192.28 236.952L1192.11 236.728C1192.25 236.355 1192.45 236.029 1192.73 235.752C1193.01 235.464 1193.34 235.24 1193.74 235.08C1194.13 234.92 1194.56 234.84 1195.02 234.84C1195.67 234.84 1196.27 235.005 1196.81 235.336C1197.37 235.667 1197.81 236.141 1198.14 236.76C1198.47 237.379 1198.63 238.125 1198.63 239C1198.63 239.864 1198.46 240.611 1198.12 241.24C1197.79 241.859 1197.35 242.333 1196.79 242.664C1196.24 242.995 1195.63 243.16 1194.97 243.16C1194.31 243.16 1193.73 243 1193.23 242.68C1192.74 242.349 1192.38 241.933 1192.17 241.432L1192.33 241.192V246.36H1191.05ZM1194.84 242.04C1195.63 242.04 1196.25 241.763 1196.68 241.208C1197.13 240.653 1197.35 239.917 1197.35 239C1197.35 238.083 1197.14 237.347 1196.7 236.792C1196.27 236.237 1195.67 235.96 1194.89 235.96C1194.38 235.96 1193.93 236.088 1193.55 236.344C1193.16 236.589 1192.86 236.941 1192.65 237.4C1192.44 237.848 1192.33 238.381 1192.33 239C1192.33 239.608 1192.43 240.141 1192.63 240.6C1192.85 241.059 1193.14 241.416 1193.51 241.672C1193.9 241.917 1194.34 242.04 1194.84 242.04ZM1201.08 246.36V235H1202.2L1202.31 236.952L1202.14 236.728C1202.28 236.355 1202.48 236.029 1202.76 235.752C1203.04 235.464 1203.38 235.24 1203.77 235.08C1204.16 234.92 1204.59 234.84 1205.05 234.84C1205.7 234.84 1206.3 235.005 1206.84 235.336C1207.4 235.667 1207.84 236.141 1208.17 236.76C1208.5 237.379 1208.67 238.125 1208.67 239C1208.67 239.864 1208.5 240.611 1208.15 241.24C1207.82 241.859 1207.38 242.333 1206.83 242.664C1206.27 242.995 1205.66 243.16 1205 243.16C1204.34 243.16 1203.76 243 1203.26 242.68C1202.77 242.349 1202.42 241.933 1202.2 241.432L1202.36 241.192V246.36H1201.08ZM1204.87 242.04C1205.66 242.04 1206.28 241.763 1206.71 241.208C1207.16 240.653 1207.39 239.917 1207.39 239C1207.39 238.083 1207.17 237.347 1206.73 236.792C1206.3 236.237 1205.7 235.96 1204.92 235.96C1204.41 235.96 1203.96 236.088 1203.58 236.344C1203.19 236.589 1202.9 236.941 1202.68 237.4C1202.47 237.848 1202.36 238.381 1202.36 239C1202.36 239.608 1202.46 240.141 1202.67 240.6C1202.88 241.059 1203.17 241.416 1203.55 241.672C1203.93 241.917 1204.37 242.04 1204.87 242.04ZM1212.33 231.32V240.968C1212.33 241.373 1212.4 241.656 1212.55 241.816C1212.7 241.965 1212.94 242.04 1213.27 242.04C1213.49 242.04 1213.66 242.024 1213.8 241.992C1213.94 241.96 1214.13 241.901 1214.36 241.816L1214.15 242.936C1213.98 243.011 1213.8 243.064 1213.59 243.096C1213.39 243.139 1213.18 243.16 1212.97 243.16C1212.32 243.16 1211.83 242.984 1211.51 242.632C1211.2 242.28 1211.05 241.741 1211.05 241.016V231.32H1212.33ZM1216.64 233.464C1216.36 233.464 1216.12 233.379 1215.94 233.208C1215.77 233.027 1215.68 232.792 1215.68 232.504C1215.68 232.216 1215.77 231.987 1215.94 231.816C1216.12 231.635 1216.36 231.544 1216.64 231.544C1216.93 231.544 1217.16 231.635 1217.33 231.816C1217.51 231.987 1217.6 232.216 1217.6 232.504C1217.6 232.792 1217.51 233.027 1217.33 233.208C1217.16 233.379 1216.93 233.464 1216.64 233.464ZM1217.28 235V243H1216V235H1217.28ZM1223.57 234.84C1224.12 234.84 1224.61 234.925 1225.02 235.096C1225.45 235.267 1225.82 235.512 1226.13 235.832C1226.43 236.152 1226.69 236.531 1226.88 236.968L1225.66 237.544C1225.49 237.032 1225.23 236.643 1224.88 236.376C1224.54 236.099 1224.09 235.96 1223.53 235.96C1223 235.96 1222.54 236.083 1222.16 236.328C1221.77 236.563 1221.48 236.909 1221.28 237.368C1221.07 237.816 1220.97 238.36 1220.97 239C1220.97 239.629 1221.07 240.173 1221.28 240.632C1221.48 241.091 1221.77 241.443 1222.16 241.688C1222.54 241.923 1223 242.04 1223.53 242.04C1223.95 242.04 1224.31 241.976 1224.61 241.848C1224.91 241.72 1225.17 241.533 1225.36 241.288C1225.56 241.043 1225.7 240.744 1225.77 240.392L1226.96 240.808C1226.78 241.299 1226.53 241.72 1226.21 242.072C1225.9 242.424 1225.52 242.696 1225.07 242.888C1224.63 243.069 1224.13 243.16 1223.57 243.16C1222.82 243.16 1222.15 242.995 1221.57 242.664C1220.98 242.333 1220.52 241.859 1220.19 241.24C1219.86 240.611 1219.69 239.864 1219.69 239C1219.69 238.136 1219.86 237.395 1220.19 236.776C1220.52 236.147 1220.98 235.667 1221.57 235.336C1222.15 235.005 1222.82 234.84 1223.57 234.84ZM1233.88 237.832C1233.88 237.235 1233.72 236.776 1233.4 236.456C1233.08 236.125 1232.63 235.96 1232.04 235.96C1231.48 235.96 1231.01 236.083 1230.63 236.328C1230.25 236.563 1229.96 236.947 1229.78 237.48L1228.74 236.84C1228.96 236.243 1229.35 235.763 1229.93 235.4C1230.5 235.027 1231.22 234.84 1232.07 234.84C1232.65 234.84 1233.17 234.941 1233.64 235.144C1234.11 235.336 1234.48 235.635 1234.74 236.04C1235.02 236.435 1235.16 236.947 1235.16 237.576V241.448C1235.16 241.832 1235.36 242.024 1235.77 242.024C1235.97 242.024 1236.17 241.997 1236.36 241.944L1236.29 242.952C1236.08 243.059 1235.8 243.112 1235.46 243.112C1235.15 243.112 1234.88 243.053 1234.63 242.936C1234.39 242.819 1234.19 242.643 1234.05 242.408C1233.92 242.163 1233.85 241.859 1233.85 241.496V241.336L1234.17 241.384C1234.04 241.8 1233.82 242.141 1233.51 242.408C1233.2 242.664 1232.85 242.856 1232.47 242.984C1232.09 243.101 1231.71 243.16 1231.33 243.16C1230.87 243.16 1230.43 243.08 1230.02 242.92C1229.62 242.76 1229.29 242.52 1229.05 242.2C1228.81 241.869 1228.69 241.464 1228.69 240.984C1228.69 240.387 1228.89 239.896 1229.29 239.512C1229.69 239.117 1230.25 238.851 1230.97 238.712L1234.13 238.088V239.144L1231.56 239.672C1231.04 239.779 1230.65 239.928 1230.39 240.12C1230.13 240.312 1230.01 240.579 1230.01 240.92C1230.01 241.251 1230.13 241.523 1230.39 241.736C1230.66 241.939 1231.03 242.04 1231.51 242.04C1231.82 242.04 1232.11 242.003 1232.39 241.928C1232.68 241.843 1232.93 241.72 1233.16 241.56C1233.38 241.389 1233.56 241.181 1233.69 240.936C1233.81 240.68 1233.88 240.381 1233.88 240.04V237.832ZM1239.84 232.728V240.792C1239.84 241.187 1239.96 241.48 1240.18 241.672C1240.4 241.864 1240.69 241.96 1241.04 241.96C1241.35 241.96 1241.62 241.907 1241.84 241.8C1242.07 241.693 1242.27 241.549 1242.45 241.368L1242.9 242.44C1242.66 242.664 1242.36 242.84 1242.02 242.968C1241.69 243.096 1241.31 243.16 1240.87 243.16C1240.46 243.16 1240.08 243.091 1239.73 242.952C1239.38 242.803 1239.1 242.573 1238.88 242.264C1238.68 241.944 1238.58 241.528 1238.56 241.016V233.08L1239.84 232.728ZM1242.76 235V236.104H1236.96V235H1242.76ZM1245.3 233.464C1245.01 233.464 1244.78 233.379 1244.6 233.208C1244.43 233.027 1244.34 232.792 1244.34 232.504C1244.34 232.216 1244.43 231.987 1244.6 231.816C1244.78 231.635 1245.01 231.544 1245.3 231.544C1245.59 231.544 1245.82 231.635 1245.99 231.816C1246.17 231.987 1246.26 232.216 1246.26 232.504C1246.26 232.792 1246.17 233.027 1245.99 233.208C1245.82 233.379 1245.59 233.464 1245.3 233.464ZM1245.94 235V243H1244.66V235H1245.94ZM1252.22 234.84C1252.98 234.84 1253.65 235.005 1254.22 235.336C1254.81 235.667 1255.27 236.147 1255.6 236.776C1255.93 237.395 1256.09 238.136 1256.09 239C1256.09 239.864 1255.93 240.611 1255.6 241.24C1255.27 241.859 1254.81 242.333 1254.22 242.664C1253.65 242.995 1252.98 243.16 1252.22 243.16C1251.48 243.16 1250.81 242.995 1250.22 242.664C1249.64 242.333 1249.18 241.859 1248.85 241.24C1248.52 240.611 1248.35 239.864 1248.35 239C1248.35 238.136 1248.52 237.395 1248.85 236.776C1249.18 236.147 1249.64 235.667 1250.22 235.336C1250.81 235.005 1251.48 234.84 1252.22 234.84ZM1252.22 235.944C1251.68 235.944 1251.21 236.067 1250.83 236.312C1250.45 236.557 1250.15 236.909 1249.93 237.368C1249.73 237.816 1249.63 238.36 1249.63 239C1249.63 239.629 1249.73 240.173 1249.93 240.632C1250.15 241.091 1250.45 241.443 1250.83 241.688C1251.21 241.933 1251.68 242.056 1252.22 242.056C1252.77 242.056 1253.23 241.933 1253.61 241.688C1254 241.443 1254.29 241.091 1254.49 240.632C1254.71 240.173 1254.81 239.629 1254.81 239C1254.81 238.36 1254.71 237.816 1254.49 237.368C1254.29 236.909 1254 236.557 1253.61 236.312C1253.23 236.067 1252.77 235.944 1252.22 235.944ZM1258.5 243V235H1259.62L1259.74 236.792L1259.53 236.616C1259.7 236.189 1259.93 235.848 1260.22 235.592C1260.5 235.325 1260.83 235.133 1261.21 235.016C1261.59 234.899 1261.99 234.84 1262.39 234.84C1262.97 234.84 1263.49 234.952 1263.96 235.176C1264.43 235.389 1264.8 235.72 1265.08 236.168C1265.37 236.616 1265.51 237.187 1265.51 237.88V243H1264.23V238.328C1264.23 237.443 1264.04 236.829 1263.66 236.488C1263.28 236.136 1262.82 235.96 1262.26 235.96C1261.88 235.96 1261.5 236.051 1261.11 236.232C1260.73 236.413 1260.41 236.707 1260.15 237.112C1259.91 237.517 1259.78 238.061 1259.78 238.744V243H1258.5Z" fill="white"/>
<defs>
<clipPath id="clip0_612_1503">
<rect width="40" height="40" fill="white" transform="translate(140 108)"/>
</clipPath>
</defs>
</svg>
